<svg xmlns="http://www.w3.org/2000/svg" xmlns:svg="http://www.w3.org/2000/svg" id="svg2" width="250" height="250" version="1.1" viewBox="0 0 250 250"><metadata id="metadata7"/><g id="layer1" transform="translate(0,-802.36223)"><path id="rect4289-8-0-5" fill="none" fill-opacity="1" fill-rule="evenodd" stroke="#000" stroke-dasharray="none" stroke-dashoffset="0" stroke-linecap="round" stroke-linejoin="round" stroke-miterlimit="4" stroke-opacity="1" stroke-width="6.753" d="m 83.852348,957.03024 c -21.8528,0 -39.4438,17.591 -39.4438,39.444 l 0,44.16096 74.685002,0 0,-50.61916 -10.8371,-18.7725 c -8.351602,-2.6786 -15.939502,-7.5402 -21.906902,-14.2133 z" opacity="1"/><path id="path4333-6-6-6" fill="none" fill-opacity="1" fill-rule="evenodd" stroke="#000" stroke-dasharray="none" stroke-dashoffset="0" stroke-linecap="round" stroke-linejoin="round" stroke-miterlimit="4" stroke-opacity="1" stroke-width="6.753" d="m 102.19055,878.61324 c -4.378602,5.578 -10.473502,10.6855 -20.372602,15.0708 -0.026,0.2161 -0.051,0.4335 -0.075,0.6506 -0.1537,1.7291 -0.2359,3.4664 -0.2462,5.2052 0.01,1.5589 0.071,3.1166 0.1934,4.6689 0.084,0.9809 0.1911,1.9587 0.3209,2.9325 0.083,0.7674 0.1794,1.5324 0.2902,2.2948 0.1742,1.0195 0.3735,2.0324 0.5978,3.0378 0.1351,0.6879 0.2817,1.3723 0.4397,2.0532 0.268,1.0378 0.5627,2.0656 0.8837,3.0819 0.1845,0.642 0.3795,1.2794 0.5847,1.9124 0.3552,1.0044 0.7364,1.9954 1.143,2.9718 0.2365,0.6108 0.4827,1.216 0.7386,1.8157 0.4449,0.9773 0.9156,1.9376 1.4112,2.8795 0.273,0.5526 0.5544,1.0994 0.8441,1.6399 0.547,0.9586 1.1204,1.8955 1.719,2.8094 0.298,0.4839 0.6028,0.9615 0.9144,1.4332 0.6401,0.913 1.3058,1.7999 1.996,2.6596 0.3197,0.4209 0.6451,0.8358 0.976,1.2444 0.714,0.8353 1.4516,1.6418 2.2113,2.4178 0.3568,0.3866 0.7188,0.7663 1.0859,1.1388 0.8035,0.7667 1.629,1.4998 2.475102,2.198 7.4901,6.332 16.4423,9.7446 25.6263,9.7688 8.655,-0.023 17.1182,-3.0381 24.3513,-8.7005 0.8251,-0.655 1.6315,-1.3426 2.418,-2.0618 0.4007,-0.3512 0.7965,-0.7102 1.187,-1.0771 0.7304,-0.7145 1.4415,-1.4563 2.1322,-2.2246 0.4085,-0.4364 0.8101,-0.8821 1.2046,-1.3364 0.6621,-0.7947 1.3028,-1.6143 1.9212,-2.4575 0.3589,-0.4702 0.7107,-0.9481 1.0552,-1.4333 0.5904,-0.8651 1.1578,-1.7522 1.7013,-2.6598 0.3324,-0.5319 0.6563,-1.0712 0.9716,-1.6178 0.4904,-0.8899 0.958,-1.7976 1.4025,-2.7213 0.3079,-0.6098 0.6054,-1.2269 0.8924,-1.851 0.4026,-0.9215 0.7823,-1.8567 1.1387,-2.8048 0.2606,-0.6591 0.5098,-1.3244 0.7474,-1.9958 0.311,-0.9309 0.5998,-1.8722 0.866,-2.8226 0.222,-0.7416 0.4302,-1.4894 0.6243,-2.2421 0.2132,-0.8893 0.4066,-1.785 0.5803,-2.6862 0.172,-0.8218 0.3274,-1.6486 0.466,-2.4794 0.1376,-0.9137 0.2548,-1.8313 0.3518,-2.7523 0.1,-0.8211 0.1832,-1.6447 0.2505,-2.4705 0.1195,-1.5171 0.1842,-3.0397 0.1934,-4.5636 -0.016,-1.3548 -0.076,-2.7083 -0.1803,-4.0577 -0.089,-1.2714 -0.2168,-2.5381 -0.3825,-3.7984 -0.045,-0.3786 -0.093,-0.7568 -0.145,-1.1343 -0.237,-1.6071 -0.5363,-3.2004 -0.8968,-4.7744 l -0.01,-0.036 c -14.8376,2.4401 -30.9993,-0.7754 -40.1606,-4.3745 -0.9169,-0.3601 -1.7935,-0.7837 -2.6378,-1.2485 -7.7416,0.6777 -15.0546,0.5278 -23.8017,-1.5036 z" opacity="1"/><path id="path4781-4" fill="none" fill-opacity="1" fill-rule="evenodd" stroke="#000" stroke-dasharray="none" stroke-linecap="butt" stroke-linejoin="miter" stroke-miterlimit="4" stroke-opacity="1" stroke-width="6.753" d="m 168.61925,842.27774 -5.3943,20.8386 c 0,0 -0.042,0.1418 -0.1407,0.3164 -0.089,0.153 -0.2694,0.3651 -0.5188,0.6023 -0.088,0.083 -0.1812,0.1644 -0.2945,0.2551 -2.3102,1.837 -10.3103,5.0912 -38.1075,4.0885 -21.165,0.7633 -30.848302,-0.9424 -35.293802,-2.6114 -0.2858,-0.1084 -0.5252,-0.2139 -0.7693,-0.321 -0.1565,-0.068 -0.3258,-0.1351 -0.466,-0.2026 -0.2433,-0.1173 -0.4564,-0.2347 -0.6551,-0.3474 -0.071,-0.041 -0.1454,-0.079 -0.2109,-0.1186 -0.4626,-0.2786 -0.784,-0.5364 -1.0244,-0.765 -0.1625,-0.1577 -0.2616,-0.2833 -0.3473,-0.4046 -0.059,-0.083 -0.165,-0.1936 -0.1978,-0.255 -0.062,-0.1283 -0.097,-0.2372 -0.097,-0.2372 l -0.5496,-2.5764 -4.6029,-17.1325 c -7.1803,5.885 -13.2642,14.5993 -16.2269,27.4683 -10.3682,45.0363 1.6178,69.66 1.6178,69.66 1.296,1.2961 15.5529,10.6928 32.401,5.5087 1.185,-0.3647 2.326202,-1.2439 3.424802,-2.5631 -12.288202,-9.8323 -19.662402,-26.3064 -19.669202,-43.9415 0.011,-1.9542 0.1118,-3.9062 0.3033,-5.847 9.9101,-4.3871 16.0089,-9.4982 20.390202,-15.0796 8.7471,2.0314 16.0602,2.1814 23.8018,1.5036 0.8443,0.4648 1.7209,0.8885 2.6378,1.2487 9.1612,3.5989 25.323,6.8144 40.1606,4.3743 1.0455,4.4954 1.5881,9.1354 1.6134,13.8 -0.01,18.1959 -7.8541,35.1136 -20.7815,44.8031 0.8539,0.8443 1.7337,1.4233 2.6378,1.7015 16.8481,5.1841 31.1007,-4.2126 32.3967,-5.5087 0,0 11.9903,-24.6237 1.6222,-69.66 -3.1578,-13.717 -9.8624,-22.7166 -17.6601,-28.598 z"/><path id="path4791-4" fill="none" fill-rule="evenodd" stroke="#000" stroke-dasharray="none" stroke-linecap="butt" stroke-linejoin="miter" stroke-miterlimit="4" stroke-opacity="1" stroke-width="6.753" d="m 163.22695,863.11744 6.8732,-32.3033 c 0,0 -12.1428,-16.4956 -45.9362,-16.7248 -33.793402,0.2292 -45.936102,16.7248 -45.936102,16.7248 l 6.8732,32.3033 c 0,0 0.9526,6.6353 39.062502,5.2606 38.1098,1.3747 39.0634,-5.2606 39.0634,-5.2606 z"/><path id="rect4807-0" fill="none" fill-opacity="1" fill-rule="evenodd" stroke="#000" stroke-dasharray="none" stroke-dashoffset="0" stroke-linecap="round" stroke-linejoin="round" stroke-miterlimit="4" stroke-opacity="1" stroke-width="6.753" d="m 119.46815,825.54514 0,11.281 -11.2854,0 0,11.114 11.2854,0 0,11.281 11.1096,0 0,-11.281 11.2854,0 0,-11.114 -11.2854,0 0,-11.281 -11.1096,0 z" opacity="1"/><path id="path4155" fill="none" fill-opacity="1" fill-rule="evenodd" stroke="#000" stroke-dasharray="none" stroke-dashoffset="0" stroke-linecap="round" stroke-linejoin="round" stroke-miterlimit="4" stroke-opacity="1" stroke-width="6.753" d="m 160.41015,957.03024 c -4.9667,5.554 -11.0617,9.8388 -17.7787,12.6703 l -11.7251,20.3155 0,50.61916 74.6851,0 0,-44.16096 c 0,-21.853 -17.5958,-39.444 -39.4484,-39.444 z" opacity="1"/></g></svg>