<svg xmlns="http://www.w3.org/2000/svg" xmlns:svg="http://www.w3.org/2000/svg" id="svg2" width="250" height="250" version="1.1" viewBox="0 0 250 250"><metadata id="metadata7"/><g id="layer1" transform="translate(0,-802.36223)"><path id="rect4528-6" fill="none" fill-opacity="1" fill-rule="evenodd" stroke="#000" stroke-dasharray="none" stroke-dashoffset="0" stroke-linecap="round" stroke-linejoin="round" stroke-miterlimit="4" stroke-opacity="1" stroke-width="6.753" d="m 97.551348,959.58897 -55.662002,0 0,-0.002 c -3.8021,0 -6.8626,3.0606 -6.8626,6.8628 l 0,22.0827 c 0,3.8021 3.0605,6.86265 6.8626,6.86265 l 55.662002,0" opacity="1"/><path id="path4520-7" fill="none" fill-rule="evenodd" stroke="#000" stroke-dasharray="none" stroke-linecap="butt" stroke-linejoin="round" stroke-miterlimit="4" stroke-opacity="1" stroke-width="6.753" d="m 190.95585,959.58707 -10.9115,-35.5093 -25.0636,-1.7893 4.1765,-17.3083 23.872,-3.5786 -4.1763,-74.597 -29.838,38.191 -32.2295,-8.9511 -11.9363,51.3273 -23.274004,-12.5339 -22.4302,64.7492"/><rect id="rect4532-17" width="21.63" height="22.613" x="114.774" y="966.185" fill="none" fill-opacity="1" fill-rule="evenodd" stroke="#000" stroke-dasharray="none" stroke-dashoffset="0" stroke-linecap="round" stroke-linejoin="round" stroke-miterlimit="4" stroke-opacity="1" stroke-width="6.753" opacity="1" ry=".983"/><rect id="rect4530-3" width="56.098" height="55.203" x="97.54" y="949.89" fill="none" fill-opacity="1" fill-rule="evenodd" stroke="#000" stroke-dasharray="none" stroke-dashoffset="0" stroke-linecap="round" stroke-linejoin="round" stroke-miterlimit="4" stroke-opacity="1" stroke-width="6.753" opacity="1" ry="9.847"/><path id="path4155" fill="none" fill-opacity="1" fill-rule="evenodd" stroke="#000" stroke-dasharray="none" stroke-dashoffset="0" stroke-linecap="round" stroke-linejoin="round" stroke-miterlimit="4" stroke-opacity="1" stroke-width="6.753" d="m 153.62665,995.39342 55.6622,0 c 3.802,0 6.8626,-3.06055 6.8626,-6.86265 l 0,-22.0827 c 0,-3.8022 -3.0606,-6.8628 -6.8626,-6.8628 l -55.6622,0" opacity="1"/><path id="path4138" fill="none" fill-rule="evenodd" stroke="#000" stroke-dasharray="none" stroke-linecap="butt" stroke-linejoin="round" stroke-miterlimit="4" stroke-opacity="1" stroke-width="6.753" d="m 39.880046,995.06562 -37.0784999,32.85368 119.6902039,0 124.70673,0 -38.69643,-33.10118"/></g></svg>