<?xml version="1.0" encoding="UTF-8" standalone="no"?>
<!-- Created with Inkscape (http://www.inkscape.org/) -->

<svg
   xmlns:dc="http://purl.org/dc/elements/1.1/"
   xmlns:cc="http://creativecommons.org/ns#"
   xmlns:rdf="http://www.w3.org/1999/02/22-rdf-syntax-ns#"
   xmlns:svg="http://www.w3.org/2000/svg"
   xmlns="http://www.w3.org/2000/svg"
   xmlns:sodipodi="http://sodipodi.sourceforge.net/DTD/sodipodi-0.dtd"
   xmlns:inkscape="http://www.inkscape.org/namespaces/inkscape"
   width="250"
   height="250"
   viewBox="0 0 250 250"
   id="svg2"
   version="1.1"
   inkscape:version="0.91 r"
   sodipodi:docname="icon_drunk.svg">
  <defs
     id="defs4" />
  <sodipodi:namedview
     id="base"
     pagecolor="#ffffff"
     bordercolor="#666666"
     borderopacity="1.0"
     inkscape:pageopacity="0.0"
     inkscape:pageshadow="2"
     inkscape:zoom="0.90509668"
     inkscape:cx="108.99925"
     inkscape:cy="-119.37672"
     inkscape:document-units="px"
     inkscape:current-layer="layer1"
     showgrid="false"
     inkscape:window-width="1916"
     inkscape:window-height="1143"
     inkscape:window-x="1680"
     inkscape:window-y="36"
     inkscape:window-maximized="0"
     units="px"
     showguides="false" />
  <metadata
     id="metadata7">
    <rdf:RDF>
      <cc:Work
         rdf:about="">
        <dc:format>image/svg+xml</dc:format>
        <dc:type
           rdf:resource="http://purl.org/dc/dcmitype/StillImage" />
        <dc:title></dc:title>
      </cc:Work>
    </rdf:RDF>
  </metadata>
  <g
     inkscape:label="Layer 1"
     inkscape:groupmode="layer"
     id="layer1"
     transform="translate(0,-802.36223)">
    <g
       id="g4260"
       transform="matrix(0.38601169,0,0,0.38601169,-706.04837,723.61306)">
      <path
         inkscape:connector-curvature="0"
         id="path4183-2"
         d="m 1961.4102,444.49503 c -44.1679,9.4068 -79.3323,50.0748 -89.3594,159.11915 -12.5,135.9375 126.5625,151.5625 126.5625,151.5625 l 0,78.125 335.9375,0 0,-278.37105 c -28.6974,-6.7196 -50,-31.5104 -50,-61.0821 0.017,-0.424 0.04,-0.8478 0.066,-1.2715 -0.803,0.0445 -1.6065,0.0775 -2.4102,0.0997 -36.4305,-0.0608 -63.7926,20.0375 -81.8359,-16.9668 -17.3707,18.3797 -46.9693,-14.2912 -71.2891,-14.2832 -23.0674,-0.043 -46.0776,15.6552 -63.1484,-1.0977 -13.3766,16.3831 -33.8109,1.0689 -56.3828,1.0977 -18.5726,0 -35.4767,-6.4233 -48.1406,-16.9317 z"
         style="fill:none;fill-rule:evenodd;stroke:#000000;stroke-width:10;stroke-linecap:butt;stroke-linejoin:miter;stroke-miterlimit:4;stroke-dasharray:none;stroke-opacity:1" />
      <path
         sodipodi:nodetypes="ccsc"
         inkscape:connector-curvature="0"
         id="path4185-0"
         d="m 1997.92,491.49484 0,215.4466 c 0,0 -76.235,6.0767 -75.1301,-104.4087 0.7542,-75.4183 20.9922,-109.9331 75.1301,-111.0379 z"
         style="fill:none;fill-rule:evenodd;stroke:#000000;stroke-width:10;stroke-linecap:butt;stroke-linejoin:miter;stroke-miterlimit:4;stroke-dasharray:none;stroke-opacity:1" />
      <path
         inkscape:connector-curvature="0"
         id="rect4187-0"
         d="m 2073.2757,509.86384 1.455,0 c 12.365,0 22.3194,9.9545 22.3194,22.3194 l 0,181.9238 c 0,12.3649 -9.9544,22.3193 -22.3194,22.3193 l -1.455,0 c -12.3649,0 -22.3193,-9.9544 -22.3193,-22.3193 l 0,-181.9238 c 0,-12.3649 9.9544,-22.3194 22.3193,-22.3194 z"
         style="opacity:1;fill:none;fill-opacity:1;fill-rule:evenodd;stroke:#000000;stroke-width:10;stroke-linecap:round;stroke-linejoin:miter;stroke-miterlimit:4;stroke-dasharray:none;stroke-dashoffset:0;stroke-opacity:1" />
      <path
         inkscape:connector-curvature="0"
         id="rect4189-5"
         d="m 2165.2757,509.86384 1.455,0 c 12.365,0 22.3194,9.9545 22.3194,22.3194 l 0,181.9238 c 0,12.3649 -9.9544,22.3193 -22.3194,22.3193 l -1.455,0 c -12.3649,0 -22.3193,-9.9544 -22.3193,-22.3193 l 0,-181.9238 c 0,-12.3649 9.9544,-22.3194 22.3193,-22.3194 z"
         style="opacity:1;fill:none;fill-opacity:1;fill-rule:evenodd;stroke:#000000;stroke-width:10;stroke-linecap:round;stroke-linejoin:miter;stroke-miterlimit:4;stroke-dasharray:none;stroke-dashoffset:0;stroke-opacity:1" />
      <path
         inkscape:connector-curvature="0"
         id="rect4191-4"
         d="m 2255.2757,509.86384 1.455,0 c 12.365,0 22.3194,9.9545 22.3194,22.3194 l 0,181.9238 c 0,12.3649 -9.9544,22.3193 -22.3194,22.3193 l -1.455,0 c -12.3649,0 -22.3193,-9.9544 -22.3193,-22.3193 l 0,-181.9238 c 0,-12.3649 9.9544,-22.3194 22.3193,-22.3194 z"
         style="opacity:1;fill:none;fill-opacity:1;fill-rule:evenodd;stroke:#000000;stroke-width:10;stroke-linecap:round;stroke-linejoin:miter;stroke-miterlimit:4;stroke-dasharray:none;stroke-dashoffset:0;stroke-opacity:1" />
      <path
         sodipodi:nodetypes="cccccccccccccccscccccccc"
         inkscape:connector-curvature="0"
         id="path4193-1"
         d="m 2209.9407,222.36387 c -27.8894,0.0278 -52.6745,16.29593 -61.6738,40.48047 -6.3073,-1.44959 -12.7371,-2.18663 -19.1856,-2.19922 -26.5505,0.0375 -51.8193,12.33104 -69.4355,33.78125 -7.4974,-5.18104 -16.5629,-7.98367 -25.8769,-8 -24.1625,0 -43.75,18.36332 -43.75,41.01562 0.015,2.72606 0.3198,5.44393 0.9101,8.11329 -30.9652,7.57272 -52.464,32.89654 -52.4727,61.80859 0,35.38075 31.8298,64.06249 71.0938,64.06247 22.5719,-0.0288 43.0062,15.28551 56.3828,-1.0976 17.0708,16.75291 40.0809,1.05461 63.1484,1.0976 24.3197,-0.008 53.9184,32.66296 71.2891,14.28325 18.0432,37.00435 45.4053,16.90598 81.8359,16.96675 0.8037,-0.0222 1.6071,-0.0555 2.4102,-0.1 -0.026,0.42361 -0.048,0.84746 -0.066,1.2715 0,34.73352 29.3813,62.8906 65.625,62.8906 36.2436,0 65.6249,-28.15708 65.625,-62.8906 -0.019,-12.48076 -3.9129,-24.67383 -11.1855,-35.0273 18.7686,-12.53799 29.8998,-32.63045 29.9354,-54.03518 -0.041,-30.74895 -22.7871,-57.49946 -55.1015,-64.80274 -12.8283,-50.28499 -52.3629,-84.76381 -97.2422,-84.80664 -4.5079,0.0465 -9.0081,0.44385 -13.4707,1.18945 -10.8233,-20.75554 -33.6876,-33.97832 -58.7949,-34.00196 z"
         style="opacity:1;fill:none;fill-opacity:1;fill-rule:evenodd;stroke:#000000;stroke-width:10;stroke-linecap:round;stroke-linejoin:miter;stroke-miterlimit:4;stroke-dasharray:none;stroke-dashoffset:0;stroke-opacity:1" />
    </g>
  </g>
</svg>
