<?xml version="1.0" encoding="UTF-8" standalone="no"?>
<!-- Created with Inkscape (http://www.inkscape.org/) -->

<svg
   xmlns:dc="http://purl.org/dc/elements/1.1/"
   xmlns:cc="http://creativecommons.org/ns#"
   xmlns:rdf="http://www.w3.org/1999/02/22-rdf-syntax-ns#"
   xmlns:svg="http://www.w3.org/2000/svg"
   xmlns="http://www.w3.org/2000/svg"
   xmlns:sodipodi="http://sodipodi.sourceforge.net/DTD/sodipodi-0.dtd"
   xmlns:inkscape="http://www.inkscape.org/namespaces/inkscape"
   width="250"
   height="250"
   viewBox="0 0 250 250"
   id="svg2"
   version="1.1"
   inkscape:version="0.91 r"
   sodipodi:docname="icon_priest.svg">
  <defs
     id="defs4" />
  <sodipodi:namedview
     id="base"
     pagecolor="#ffffff"
     bordercolor="#666666"
     borderopacity="1.0"
     inkscape:pageopacity="0.0"
     inkscape:pageshadow="2"
     inkscape:zoom="3.9597978"
     inkscape:cx="103.44766"
     inkscape:cy="114.91808"
     inkscape:document-units="px"
     inkscape:current-layer="layer1"
     showgrid="false"
     inkscape:window-width="1916"
     inkscape:window-height="1143"
     inkscape:window-x="1680"
     inkscape:window-y="36"
     inkscape:window-maximized="0"
     units="px" />
  <metadata
     id="metadata7">
    <rdf:RDF>
      <cc:Work
         rdf:about="">
        <dc:format>image/svg+xml</dc:format>
        <dc:type
           rdf:resource="http://purl.org/dc/dcmitype/StillImage" />
        <dc:title></dc:title>
      </cc:Work>
    </rdf:RDF>
  </metadata>
  <g
     inkscape:label="Layer 1"
     inkscape:groupmode="layer"
     id="layer1"
     transform="translate(0,-802.36223)">
    <path
       inkscape:connector-curvature="0"
       style="opacity:1;fill:none;fill-opacity:1;fill-rule:evenodd;stroke:#000000;stroke-width:6.75277567;stroke-linecap:round;stroke-linejoin:round;stroke-miterlimit:4;stroke-dasharray:none;stroke-dashoffset:0;stroke-opacity:1"
       d="m 83.852644,938.81741 c -21.852889,0 -39.444099,17.591 -39.444099,39.4439 l 0,44.16149 161.182915,0 0,-44.16149 c 0,-21.8529 -17.59547,-39.4439 -39.44814,-39.4439 l -5.73288,0 c -9.4271,10.5416 -22.89281,16.5761 -37.03471,16.5962 -14.13896,-0.023 -27.601065,-6.0569 -37.026135,-16.5962 z"
       id="rect4289-8-4"
       sodipodi:nodetypes="ssccsscccs" />
    <path
       style="opacity:1;fill:none;fill-opacity:1;fill-rule:evenodd;stroke:#000000;stroke-width:6.75277567;stroke-linecap:round;stroke-linejoin:round;stroke-miterlimit:4;stroke-dasharray:none;stroke-dashoffset:0;stroke-opacity:1"
       d="m 120.08511,874.80481 c -0.73313,0.022 -1.5043,0.074 -2.32139,0.1627 -13.07427,1.4213 -15.91471,13.6418 -15.91471,13.6418 -4.225435,1.0563 -12.414525,0.068 -20.399005,-2.4355 a 42.256778,50.215005 0 0 0 -0.32976,5.957 42.256778,50.215005 0 0 0 42.253245,50.2149 42.256778,50.215005 0 0 0 42.25752,-50.2149 42.256778,50.215005 0 0 0 -1.01111,-10.6348 c -4.40708,0.3974 -9.23848,0.4487 -14.16935,0.2945 -17.05323,-0.5331 -19.37013,-7.3114 -30.36544,-6.9857 z"
       id="path4333-6-63"
       inkscape:connector-curvature="0" />
    <path
       style="fill:none;fill-opacity:1;fill-rule:evenodd;stroke:#000000;stroke-width:6.75277567;stroke-linecap:butt;stroke-linejoin:miter;stroke-miterlimit:4;stroke-dasharray:none;stroke-opacity:1"
       d="m 101.8481,888.61041 c -10.232026,2.5579 -43.718575,-6.7328 -41.212415,-21.0324 1.350339,-7.7048 16.20083,-36.3805 61.676495,-35.2438 45.47567,1.137 59.40238,21.3168 61.39196,34.6753 1.98959,13.3584 -15.06386,15.348 -33.25404,14.7796 -18.19018,-0.5685 -19.61143,-8.2424 -32.68547,-6.8214 -13.07427,1.4213 -15.91653,13.6427 -15.91653,13.6427 z"
       id="path4723-3"
       inkscape:connector-curvature="0"
       sodipodi:nodetypes="csssssc" />
    <path
       id="path4925"
       d="m 120.91367,965.78451 8.17289,0 0,10.8237 10.8238,0 0,8.1729 -10.8238,0 0,28.68189 -8.17289,0 0,-28.68189 -10.8238,0 0,-8.1729 10.8238,0 z"
       style="opacity:1;fill:none;fill-opacity:1;fill-rule:evenodd;stroke:#000000;stroke-width:6.75277567;stroke-linecap:round;stroke-linejoin:round;stroke-miterlimit:4;stroke-dasharray:none;stroke-dashoffset:0;stroke-opacity:1"
       inkscape:connector-curvature="0"
       sodipodi:nodetypes="ccccccccccccc" />
  </g>
</svg>
