<svg xmlns="http://www.w3.org/2000/svg" xmlns:svg="http://www.w3.org/2000/svg" id="svg2" width="250" height="250" version="1.1" viewBox="0 0 250 250"><metadata id="metadata7"/><g id="layer1" transform="translate(0,-802.36223)"><path id="rect4289-3" fill="none" fill-opacity="1" fill-rule="evenodd" stroke="#000" stroke-dasharray="none" stroke-dashoffset="0" stroke-linecap="round" stroke-linejoin="miter" stroke-miterlimit="4" stroke-opacity="1" stroke-width="6.526" d="m 42.789911,945.35088 c -21.119258,0 -38.1199684,17.00028 -38.1199684,38.11967 l 0,42.67885 26.3847744,0 0,-33.0936 13.608851,0 0,-47.70492 z" opacity="1"/><path id="path4351-9" fill="none" fill-opacity="1" fill-rule="evenodd" stroke="#000" stroke-dasharray="none" stroke-linecap="butt" stroke-linejoin="miter" stroke-miterlimit="4" stroke-opacity="1" stroke-width="6.526" d="m 53.730517,835.45582 c -12.502066,0.80146 -10.606965,33.78842 -14.696549,41.61225 -6.317707,12.08598 -17.717289,19.09414 -17.717289,19.09414 l 57.831799,0 61.502902,0 c 0,0 -11.39954,-7.00816 -17.71722,-19.09414 -4.08969,-7.82383 -2.19016,-40.81079 -14.69218,-41.61225 -10.712575,-0.68675 -17.85428,10.98743 -27.255971,10.98743 -9.401482,0 -16.543157,-11.67418 -27.255492,-10.98743 z"/><path id="rect4356-4-5" fill="none" fill-opacity="1" fill-rule="evenodd" stroke="#000" stroke-dasharray="none" stroke-dashoffset="0" stroke-linecap="round" stroke-linejoin="round" stroke-miterlimit="4" stroke-opacity="1" stroke-width="6.526" d="m 178.10829,858.62182 c -2.42204,-0.21281 -4.72728,1.29212 -5.44689,3.71747 l -14.87056,50.11828 -0.99001,3.3396 -0.85404,2.87629 c -2.30415,7.76545 2.09226,15.8767 9.85721,18.18057 l 12.62298,3.74318 -25.38625,85.55289 19.19995,0 23.82718,-80.31861 14.16095,4.20204 c 7.76517,2.30387 15.8721,-2.09629 18.17623,-9.86145 l 0.85405,-2.8762 15.86056,-53.45362 c 0.8225,-2.77182 -0.74614,-5.66531 -3.518,-6.48784 -2.77185,-0.82243 -5.66529,0.74618 -6.48779,3.51809 l -14.87078,50.118 -10.85113,-3.22034 14.87489,-50.11838 c 0.8223,-2.77191 -0.75049,-5.66531 -3.52234,-6.48774 -2.77185,-0.82263 -5.66529,0.74618 -6.48779,3.5179 l -14.87056,50.11819 -10.73671,-3.18642 14.8749,-50.11413 c 0.8225,-2.77172 -0.75028,-5.6654 -3.52213,-6.48774 -2.77184,-0.82243 -5.66551,0.74618 -6.48801,3.51781 l -14.87055,50.11422 -10.84702,-3.21647 14.87056,-50.11819 c 0.82251,-2.77191 -0.74615,-5.6654 -3.51799,-6.48774 -0.34631,-0.10234 -0.69481,-0.16951 -1.04091,-0.19966 z" opacity="1"/><circle id="path4489-1" cx="50.819" cy="1009.447" r="6.992" fill="none" fill-opacity="1" fill-rule="evenodd" stroke="#000" stroke-dasharray="none" stroke-dashoffset="0" stroke-linecap="round" stroke-linejoin="round" stroke-miterlimit="4" stroke-opacity="1" stroke-width="6.526" opacity="1"/><circle id="circle4491-7" cx="116.079" cy="1009.447" r="6.992" fill="none" fill-opacity="1" fill-rule="evenodd" stroke="#000" stroke-dasharray="none" stroke-dashoffset="0" stroke-linecap="round" stroke-linejoin="round" stroke-miterlimit="4" stroke-opacity="1" stroke-width="6.526" opacity="1"/><path id="ellipse4880" fill="none" fill-opacity="1" fill-rule="evenodd" stroke="#000" stroke-dasharray="none" stroke-dashoffset="0" stroke-linecap="round" stroke-linejoin="round" stroke-miterlimit="4" stroke-opacity="1" stroke-width="6.526" d="m 40.274488,897.17938 c -0.069,1.01649 -0.113392,2.0353 -0.128304,3.05479 0,26.80248 18.284372,48.52976 40.838945,48.52937 22.553061,0 40.834811,-21.72882 40.834811,-48.52937 0,-1.0191 -0.0327,-2.03782 -0.0892,-3.05479" opacity="1"/><path id="path4169" fill="none" fill-opacity="1" fill-rule="evenodd" stroke="#000" stroke-dasharray="none" stroke-dashoffset="0" stroke-linecap="round" stroke-linejoin="miter" stroke-miterlimit="4" stroke-opacity="1" stroke-width="6.526" d="m 111.27553,950.22786 c -7.83778,8.86258 -18.083979,13.78862 -28.721527,13.80837 -9.095196,-0.0222 -17.945604,-3.63286 -25.254644,-10.30311 l 0,39.32229 53.976171,0 0,-42.82753 z" opacity="1"/><path id="path4171" fill="none" fill-opacity="1" fill-rule="evenodd" stroke="#000" stroke-dasharray="none" stroke-dashoffset="0" stroke-linecap="round" stroke-linejoin="miter" stroke-miterlimit="4" stroke-opacity="1" stroke-width="6.526" d="m 123.91133,945.43108 0,47.62431 10.14588,0 0,33.09331 7.22286,0 16.67218,-56.18963 c -5.26241,-13.91205 -18.39399,-23.8859 -34.04092,-24.52799 z" opacity="1"/></g></svg>