<svg xmlns="http://www.w3.org/2000/svg" xmlns:svg="http://www.w3.org/2000/svg" id="svg2" width="250" height="250" version="1.1" viewBox="0 0 250 250"><metadata id="metadata7"/><g id="layer1" transform="translate(0,-802.36223)"><path id="rect4289-8-4" fill="none" fill-opacity="1" fill-rule="evenodd" stroke="#000" stroke-dasharray="none" stroke-dashoffset="0" stroke-linecap="round" stroke-linejoin="round" stroke-miterlimit="4" stroke-opacity="1" stroke-width="6.753" d="m 83.852644,938.81741 c -21.852889,0 -39.444099,17.591 -39.444099,39.4439 l 0,44.16149 161.182915,0 0,-44.16149 c 0,-21.8529 -17.59547,-39.4439 -39.44814,-39.4439 l -5.73288,0 c -9.4271,10.5416 -22.89281,16.5761 -37.03471,16.5962 -14.13896,-0.023 -27.601065,-6.0569 -37.026135,-16.5962 z" opacity="1"/><path id="path4333-6-63" fill="none" fill-opacity="1" fill-rule="evenodd" stroke="#000" stroke-dasharray="none" stroke-dashoffset="0" stroke-linecap="round" stroke-linejoin="round" stroke-miterlimit="4" stroke-opacity="1" stroke-width="6.753" d="m 120.08511,874.80481 c -0.73313,0.022 -1.5043,0.074 -2.32139,0.1627 -13.07427,1.4213 -15.91471,13.6418 -15.91471,13.6418 -4.225435,1.0563 -12.414525,0.068 -20.399005,-2.4355 a 42.256778,50.215005 0 0 0 -0.32976,5.957 42.256778,50.215005 0 0 0 42.253245,50.2149 42.256778,50.215005 0 0 0 42.25752,-50.2149 42.256778,50.215005 0 0 0 -1.01111,-10.6348 c -4.40708,0.3974 -9.23848,0.4487 -14.16935,0.2945 -17.05323,-0.5331 -19.37013,-7.3114 -30.36544,-6.9857 z" opacity="1"/><path id="path4723-3" fill="none" fill-opacity="1" fill-rule="evenodd" stroke="#000" stroke-dasharray="none" stroke-linecap="butt" stroke-linejoin="miter" stroke-miterlimit="4" stroke-opacity="1" stroke-width="6.753" d="m 101.8481,888.61041 c -10.232026,2.5579 -43.718575,-6.7328 -41.212415,-21.0324 1.350339,-7.7048 16.20083,-36.3805 61.676495,-35.2438 45.47567,1.137 59.40238,21.3168 61.39196,34.6753 1.98959,13.3584 -15.06386,15.348 -33.25404,14.7796 -18.19018,-0.5685 -19.61143,-8.2424 -32.68547,-6.8214 -13.07427,1.4213 -15.91653,13.6427 -15.91653,13.6427 z"/><path id="path4925" fill="none" fill-opacity="1" fill-rule="evenodd" stroke="#000" stroke-dasharray="none" stroke-dashoffset="0" stroke-linecap="round" stroke-linejoin="round" stroke-miterlimit="4" stroke-opacity="1" stroke-width="6.753" d="m 120.91367,965.78451 8.17289,0 0,10.8237 10.8238,0 0,8.1729 -10.8238,0 0,28.68189 -8.17289,0 0,-28.68189 -10.8238,0 0,-8.1729 10.8238,0 z" opacity="1"/></g></svg>