<svg xmlns="http://www.w3.org/2000/svg" xmlns:svg="http://www.w3.org/2000/svg" id="svg2" width="250" height="250" version="1.1" viewBox="0 0 250 250"><metadata id="metadata7"/><g id="layer1" transform="translate(0,-802.36223)"><path id="rect4289-3" fill="none" fill-opacity="1" fill-rule="evenodd" stroke="#000" stroke-dasharray="none" stroke-dashoffset="0" stroke-linecap="round" stroke-linejoin="miter" stroke-miterlimit="4" stroke-opacity="1" stroke-width="6.753" d="m 511.41954,659.64368 c -21.85286,0 -39.44411,17.5908 -39.44411,39.4438 l 0,44.1613 27.30128,0 0,-34.2431 14.08157,0 0,-49.362 -1.93874,0 z m 83.93926,0.083 0,49.2786 10.49831,0 0,34.2428 7.47375,0 17.25131,-58.1414 c -5.4452,-14.3953 -19.03292,-24.7156 -35.22337,-25.38 z m -13.07472,4.9634 a 44.054447,54.28645 0 0 1 -29.7192,14.288 44.054447,54.28645 0 0 1 -26.13189,-10.661 l 0,40.6882 55.85109,0 0,-44.3152 z" opacity="1"/><path id="path4351-9" fill="none" fill-opacity="1" fill-rule="evenodd" stroke="#000" stroke-dasharray="none" stroke-linecap="butt" stroke-linejoin="miter" stroke-miterlimit="4" stroke-opacity="1" stroke-width="6.753" d="m 522.74018,545.93128 c -12.93634,0.8293 -10.97541,34.9621 -15.20705,43.0577 -6.53716,12.5058 -18.33272,19.7574 -18.33272,19.7574 l 59.84065,0 63.63928,0 c 0,0 -11.79552,-7.2516 -18.33265,-19.7574 -4.23175,-8.0956 -2.26624,-42.2284 -15.20253,-43.0577 -11.08469,-0.7106 -18.47447,11.3691 -28.20274,11.3691 -9.72805,0 -17.1178,-12.0797 -28.20224,-11.3691 z"/><path id="rect4356-4-5" fill="none" fill-opacity="1" fill-rule="evenodd" stroke="#000" stroke-dasharray="none" stroke-dashoffset="0" stroke-linecap="round" stroke-linejoin="round" stroke-miterlimit="4" stroke-opacity="1" stroke-width="6.753" d="m 651.43836,569.90198 c -2.50618,-0.2202 -4.89149,1.337 -5.6361,3.8466 l -15.3871,51.8592 -1.0244,3.4556 -0.88371,2.9762 c -2.38419,8.0352 2.16494,16.4282 10.19961,18.8121 l 13.06146,3.8732 -26.26808,88.5247 19.86689,0 24.65484,-83.1086 14.65285,4.348 c 8.0349,2.3839 16.42343,-2.1691 18.8076,-10.204 l 0.88372,-2.9761 16.41149,-55.3104 c 0.85107,-2.8681 -0.77206,-5.8621 -3.6402,-6.7132 -2.86813,-0.851 -5.86208,0.7721 -6.71315,3.6403 l -15.38733,51.8589 -11.22806,-3.3322 15.39159,-51.8593 c 0.85086,-2.8682 -0.77656,-5.8621 -3.6447,-6.7131 -2.86813,-0.8512 -5.86208,0.7721 -6.71315,3.6401 l -15.3871,51.8591 -11.10967,-3.2971 15.3916,-51.8549 c 0.85107,-2.868 -0.77634,-5.8622 -3.64447,-6.7131 -2.86813,-0.851 -5.86231,0.7721 -6.71338,3.64 l -15.3871,51.855 -11.2238,-3.3282 15.3871,-51.8591 c 0.85109,-2.8682 -0.77206,-5.8622 -3.64019,-6.7131 -0.35834,-0.1059 -0.71894,-0.1754 -1.07706,-0.2066 z" opacity="1"/><circle id="path4489-1" cx="519.727" cy="725.966" r="7.235" fill="none" fill-opacity="1" fill-rule="evenodd" stroke="#000" stroke-dasharray="none" stroke-dashoffset="0" stroke-linecap="round" stroke-linejoin="round" stroke-miterlimit="4" stroke-opacity="1" stroke-width="6.753" opacity="1"/><circle id="circle4491-7" cx="587.255" cy="725.966" r="7.235" fill="none" fill-opacity="1" fill-rule="evenodd" stroke="#000" stroke-dasharray="none" stroke-dashoffset="0" stroke-linecap="round" stroke-linejoin="round" stroke-miterlimit="4" stroke-opacity="1" stroke-width="6.753" opacity="1"/><path id="rect4528-6" fill="none" fill-opacity="1" fill-rule="evenodd" stroke="#000" stroke-dasharray="none" stroke-dashoffset="0" stroke-linecap="round" stroke-linejoin="round" stroke-miterlimit="4" stroke-opacity="1" stroke-width="6.753" d="m 198.45162,662.70778 c -3.8021,0 -6.8626,3.0606 -6.8626,6.8628 l 0,22.0827 c 0,3.8021 3.0605,6.8626 6.8626,6.8626 l 55.662,0 c -7e-4,-0.052 -0.023,-0.099 -0.023,-0.1485 l 0,-35.5093 c 0,-0.052 0.023,-0.099 0.023,-0.1484 l -55.662,0 z m 111.7373,0 c 8e-4,0.052 0.023,0.099 0.023,0.1485 l 0,35.5093 c 0,0.052 -0.023,0.099 -0.023,0.1485 l 55.6622,0 c 3.802,0 6.8626,-3.0605 6.8626,-6.8626 l 0,-22.0827 c 0,-3.8022 -3.0606,-6.8628 -6.8626,-6.8628 l -55.6622,0 z" opacity="1"/><path id="path4520-7" fill="none" fill-rule="evenodd" stroke="#000" stroke-dasharray="none" stroke-linecap="butt" stroke-linejoin="round" stroke-miterlimit="4" stroke-opacity="1" stroke-width="6.753" d="m 347.51812,662.70778 -10.9115,-35.5093 -25.0636,-1.7893 4.1765,-17.3083 23.872,-3.5786 -4.1763,-74.597 -29.838,38.191 -32.2295,-8.9511 -11.9363,51.3273 -23.274,-12.5339 -22.4302,64.7492 m -19.2649,35.4785 -37.0785,32.8537 119.6902,0 124.70673,0 -38.69643,-33.1012"/><rect id="rect4532-17" width="21.63" height="22.613" x="271.336" y="669.306" fill="none" fill-opacity="1" fill-rule="evenodd" stroke="#000" stroke-dasharray="none" stroke-dashoffset="0" stroke-linecap="round" stroke-linejoin="round" stroke-miterlimit="4" stroke-opacity="1" stroke-width="6.753" opacity="1" ry=".983"/><rect id="rect4530-3" width="56.098" height="55.203" x="254.102" y="653.011" fill="none" fill-opacity="1" fill-rule="evenodd" stroke="#000" stroke-dasharray="none" stroke-dashoffset="0" stroke-linecap="round" stroke-linejoin="round" stroke-miterlimit="4" stroke-opacity="1" stroke-width="6.753" opacity="1" ry="9.847"/><path id="rect4289-8-4" fill="none" fill-opacity="1" fill-rule="evenodd" stroke="#000" stroke-dasharray="none" stroke-dashoffset="0" stroke-linecap="round" stroke-linejoin="round" stroke-miterlimit="4" stroke-opacity="1" stroke-width="6.753" d="m 840.01278,647.96078 c -21.85289,0 -39.4441,17.591 -39.4441,39.4439 l 0,44.1614 161.18291,0 0,-44.1614 c 0,-21.8529 -17.59547,-39.4439 -39.44814,-39.4439 l -5.73288,0 c -9.4271,10.5416 -22.89281,16.5761 -37.0347,16.5962 -14.13896,-0.023 -27.60107,-6.0569 -37.02614,-16.5962 z" opacity="1"/><path id="path4333-6-63" fill="none" fill-opacity="1" fill-rule="evenodd" stroke="#000" stroke-dasharray="none" stroke-dashoffset="0" stroke-linecap="round" stroke-linejoin="round" stroke-miterlimit="4" stroke-opacity="1" stroke-width="6.753" d="m 876.24525,583.94818 c -0.73313,0.022 -1.5043,0.074 -2.32139,0.1627 -13.07427,1.4213 -15.91471,13.6418 -15.91471,13.6418 -4.22544,1.0563 -12.41453,0.068 -20.39901,-2.4355 a 42.256778,50.215005 0 0 0 -0.32976,5.957 42.256778,50.215005 0 0 0 42.25325,50.2149 42.256778,50.215005 0 0 0 42.25751,-50.2149 42.256778,50.215005 0 0 0 -1.01111,-10.6348 c -4.40708,0.3974 -9.23848,0.4487 -14.16935,0.2945 -17.05323,-0.5331 -19.37012,-7.3114 -30.36543,-6.9857 z" opacity="1"/><path id="path4723-3" fill="none" fill-opacity="1" fill-rule="evenodd" stroke="#000" stroke-dasharray="none" stroke-linecap="butt" stroke-linejoin="miter" stroke-miterlimit="4" stroke-opacity="1" stroke-width="6.753" d="m 858.00824,597.75378 c -10.23203,2.5579 -43.71858,-6.7328 -41.21242,-21.0324 1.35034,-7.7048 16.20083,-36.3805 61.6765,-35.2438 45.47566,1.137 59.40237,21.3168 61.39195,34.6753 1.98959,13.3584 -15.06386,15.348 -33.25404,14.7796 -18.19018,-0.5685 -19.61142,-8.2424 -32.68546,-6.8214 -13.07427,1.4213 -15.91653,13.6427 -15.91653,13.6427 z"/><path id="rect4289-8-0-5" fill="none" fill-opacity="1" fill-rule="evenodd" stroke="#000" stroke-dasharray="none" stroke-dashoffset="0" stroke-linecap="round" stroke-linejoin="round" stroke-miterlimit="4" stroke-opacity="1" stroke-width="6.753" d="m 1072.9846,679.73058 c -21.8528,0 -39.4438,17.591 -39.4438,39.444 l 0,44.161 74.685,0 0,-50.6192 -10.8371,-18.7725 c -8.3516,-2.6786 -15.9395,-7.5402 -21.9069,-14.2133 l -2.4972,0 z m 76.5578,0 c -4.9667,5.554 -11.0617,9.8388 -17.7787,12.6703 l -11.7251,20.3155 0,50.6192 74.6851,0 0,-44.161 c 0,-21.853 -17.5958,-39.444 -39.4484,-39.444 l -5.7329,0 z" opacity="1"/><path id="path4333-6-6-6" fill="none" fill-opacity="1" fill-rule="evenodd" stroke="#000" stroke-dasharray="none" stroke-dashoffset="0" stroke-linecap="round" stroke-linejoin="round" stroke-miterlimit="4" stroke-opacity="1" stroke-width="6.753" d="m 1091.3228,601.31358 c -4.3786,5.578 -10.4735,10.6855 -20.3726,15.0708 -0.026,0.2161 -0.051,0.4335 -0.075,0.6506 -0.1537,1.7291 -0.2359,3.4664 -0.2462,5.2052 0.01,1.5589 0.071,3.1166 0.1934,4.6689 0.084,0.9809 0.1911,1.9587 0.3209,2.9325 0.083,0.7674 0.1794,1.5324 0.2902,2.2948 0.1742,1.0195 0.3735,2.0324 0.5978,3.0378 0.1351,0.6879 0.2817,1.3723 0.4397,2.0532 0.268,1.0378 0.5627,2.0656 0.8837,3.0819 0.1845,0.642 0.3795,1.2794 0.5847,1.9124 0.3552,1.0044 0.7364,1.9954 1.143,2.9718 0.2365,0.6108 0.4827,1.216 0.7386,1.8157 0.4449,0.9773 0.9156,1.9376 1.4112,2.8795 0.273,0.5526 0.5544,1.0994 0.8441,1.6399 0.547,0.9586 1.1204,1.8955 1.719,2.8094 0.298,0.4839 0.6028,0.9615 0.9144,1.4332 0.6401,0.913 1.3058,1.7999 1.996,2.6596 0.3197,0.4209 0.6451,0.8358 0.976,1.2444 0.714,0.8353 1.4516,1.6418 2.2113,2.4178 0.3568,0.3866 0.7188,0.7663 1.0859,1.1388 0.8035,0.7667 1.629,1.4998 2.4751,2.198 7.4901,6.332 16.4423,9.7446 25.6263,9.7688 8.655,-0.023 17.1182,-3.0381 24.3513,-8.7005 0.8251,-0.655 1.6315,-1.3426 2.418,-2.0618 0.4007,-0.3512 0.7965,-0.7102 1.187,-1.0771 0.7304,-0.7145 1.4415,-1.4563 2.1322,-2.2246 0.4085,-0.4364 0.8101,-0.8821 1.2046,-1.3364 0.6621,-0.7947 1.3028,-1.6143 1.9212,-2.4575 0.3589,-0.4702 0.7107,-0.9481 1.0552,-1.4333 0.5904,-0.8651 1.1578,-1.7522 1.7013,-2.6598 0.3324,-0.5319 0.6563,-1.0712 0.9716,-1.6178 0.4904,-0.8899 0.958,-1.7976 1.4025,-2.7213 0.3079,-0.6098 0.6054,-1.2269 0.8924,-1.851 0.4026,-0.9215 0.7823,-1.8567 1.1387,-2.8048 0.2606,-0.6591 0.5098,-1.3244 0.7474,-1.9958 0.311,-0.9309 0.5998,-1.8722 0.866,-2.8226 0.222,-0.7416 0.4302,-1.4894 0.6243,-2.2421 0.2132,-0.8893 0.4066,-1.785 0.5803,-2.6862 0.172,-0.8218 0.3274,-1.6486 0.466,-2.4794 0.1376,-0.9137 0.2548,-1.8313 0.3518,-2.7523 0.1,-0.8211 0.1832,-1.6447 0.2505,-2.4705 0.1195,-1.5171 0.1842,-3.0397 0.1934,-4.5636 -0.016,-1.3548 -0.076,-2.7083 -0.1803,-4.0577 -0.089,-1.2714 -0.2168,-2.5381 -0.3825,-3.7984 -0.045,-0.3786 -0.093,-0.7568 -0.145,-1.1343 -0.237,-1.6071 -0.5363,-3.2004 -0.8968,-4.7744 l -0.01,-0.036 c -14.8376,2.4401 -30.9993,-0.7754 -40.1606,-4.3745 -0.9169,-0.3601 -1.7935,-0.7837 -2.6378,-1.2485 -7.7416,0.6777 -15.0546,0.5278 -23.8017,-1.5036 z" opacity="1"/><path id="path4781-4" fill="none" fill-opacity="1" fill-rule="evenodd" stroke="#000" stroke-dasharray="none" stroke-linecap="butt" stroke-linejoin="miter" stroke-miterlimit="4" stroke-opacity="1" stroke-width="6.753" d="m 1157.7515,564.97808 -5.3943,20.8386 c 0,0 -0.042,0.1418 -0.1407,0.3164 -0.089,0.153 -0.2694,0.3651 -0.5188,0.6023 -0.088,0.083 -0.1812,0.1644 -0.2945,0.2551 -2.3102,1.837 -10.3103,5.0912 -38.1075,4.0885 -21.165,0.7633 -30.8483,-0.9424 -35.2938,-2.6114 -0.2858,-0.1084 -0.5252,-0.2139 -0.7693,-0.321 -0.1565,-0.068 -0.3258,-0.1351 -0.466,-0.2026 -0.2433,-0.1173 -0.4564,-0.2347 -0.6551,-0.3474 -0.071,-0.041 -0.1454,-0.079 -0.2109,-0.1186 -0.4626,-0.2786 -0.784,-0.5364 -1.0244,-0.765 -0.1625,-0.1577 -0.2616,-0.2833 -0.3473,-0.4046 -0.059,-0.083 -0.165,-0.1936 -0.1978,-0.255 -0.062,-0.1283 -0.097,-0.2372 -0.097,-0.2372 l -0.5496,-2.5764 -4.6029,-17.1325 c -7.1803,5.885 -13.2642,14.5993 -16.2269,27.4683 -10.3682,45.0363 1.6178,69.66 1.6178,69.66 1.296,1.2961 15.5529,10.6928 32.401,5.5087 1.185,-0.3647 2.3262,-1.2439 3.4248,-2.5631 -12.2882,-9.8323 -19.6624,-26.3064 -19.6692,-43.9415 0.011,-1.9542 0.1118,-3.9062 0.3033,-5.847 9.9101,-4.3871 16.0089,-9.4982 20.3902,-15.0796 8.7471,2.0314 16.0602,2.1814 23.8018,1.5036 0.8443,0.4648 1.7209,0.8885 2.6378,1.2487 9.1612,3.5989 25.323,6.8144 40.1606,4.3743 1.0455,4.4954 1.5881,9.1354 1.6134,13.8 -0.01,18.1959 -7.8541,35.1136 -20.7815,44.8031 0.8539,0.8443 1.7337,1.4233 2.6378,1.7015 16.8481,5.1841 31.1007,-4.2126 32.3967,-5.5087 0,0 11.9903,-24.6237 1.6222,-69.66 -3.1578,-13.717 -9.8624,-22.7166 -17.6601,-28.598 z"/><path id="path4791-4" fill="none" fill-rule="evenodd" stroke="#000" stroke-dasharray="none" stroke-linecap="butt" stroke-linejoin="miter" stroke-miterlimit="4" stroke-opacity="1" stroke-width="6.753" d="m 1152.3592,585.81778 6.8732,-32.3033 c 0,0 -12.1428,-16.4956 -45.9362,-16.7248 -33.7934,0.2292 -45.9361,16.7248 -45.9361,16.7248 l 6.8732,32.3033 c 0,0 0.9526,6.6353 39.0625,5.2606 38.1098,1.3747 39.0634,-5.2606 39.0634,-5.2606 z"/><path id="rect4807-0" fill="none" fill-opacity="1" fill-rule="evenodd" stroke="#000" stroke-dasharray="none" stroke-dashoffset="0" stroke-linecap="round" stroke-linejoin="round" stroke-miterlimit="4" stroke-opacity="1" stroke-width="6.753" d="m 1108.6004,548.24548 0,11.281 -11.2854,0 0,11.114 11.2854,0 0,11.281 11.1096,0 0,-11.281 11.2854,0 0,-11.114 -11.2854,0 0,-11.281 -11.1096,0 z" opacity="1"/><g id="g4222" transform="matrix(0.93714228,0,0,0.93714228,132.42456,320.67575)"><path id="path4572-7" fill="none" fill-opacity="1" fill-rule="evenodd" stroke="#000" stroke-dasharray="none" stroke-linecap="butt" stroke-linejoin="miter" stroke-miterlimit="4" stroke-opacity="1" stroke-width="6.753" d="m -60.730577,560.83278 c -25.5129,2.0825 -56.255803,-4.9627 -73.958603,-8.0867 -1.0791,13.0394 -0.617,23.7763 2.0558,34.9318 2.9905,-3.8815 6.5589,-8.3395 10.9851,-13.565 0.3971,0.1212 10.9157,2.4151 17.6833,3.4553 -9.6894,3.6907 -18.7221,6.9542 -25.4906,20.4914 -0.029,0.047 -0.045,0.079 -0.07,0.1263 3.1588,8.9618 7.7537,18.6594 14.1231,30.3363 0.6515,-16.2951 -1.3352,-22.5792 11.2133,-22.3635 17.707503,0.3043 52.010403,18.0883 52.551603,37.7908 0.4748,17.2724 -31.0268,27.0247 -40.7696,23.6133 -4.3806,-1.5339 -14.261003,-10.5164 -14.261003,-10.5164 1.7258,26.4531 13.337703,50.7667 29.796803,63.1112 -0.2595,-5.467 -0.2624,-11.4547 2.6026,-16.4011 0,0 6.5101,10.415 16.6633,11.1961 -5.467,-9.3722 -8.4601,-14.3263 1.5601,-19.7839 10.4815,-5.7089 45.8189,-29.6806 54.6703001,29.6758 0,0 11.1936,-7.0258 15.3588999,-17.6995 7.5499,14.5786 13.7987,38.5252 13.7987,38.5252 0,0 16.4043,-21.0861 11.4579,-49.9833 0,0 18.2244,11.7152 41.1336,36.447 -0.5204,-23.1699 -1.5629,-34.362 -8.3314,-47.8993 21.4494,-1.6183 38.269197,-20.3078 38.269197,-20.3078 0,0 -22.130897,-1.8205 -23.172497,-19.7836 14.578897,-19.2648 25.775197,-19.0037 25.775197,-19.0037 0,0 -14.840197,-11.9795 -37.488997,-12.5003 7.2213,-5.633 11.0253,-9.0228 15.0469,-14.7825 -6.9565,0.5997 -27.2819,8.7982 -43.1622,-2.9169 13.277,-16.6614 33.0594,-17.7067 43.2121,-39.8354 -27.5954,-0.7807 -52.0628,0.7852 -76.7946,8.8556 -25.7733,-2.8636 -69.3689,-18.0422 -69.3689,-18.0422 z"/><path id="path4861" fill="none" fill-opacity="1" fill-rule="evenodd" stroke="#000" stroke-dasharray="none" stroke-linecap="butt" stroke-linejoin="miter" stroke-miterlimit="4" stroke-opacity="1" stroke-width="6.753" d="m -46.151777,561.61288 c 6.7685,1.3017 28.3772,17.9671 28.3772,17.9671 -8.9046,1.5183 -28.3772,0.7802 -28.3772,0.7802 z"/></g><path id="ellipse4880" fill="none" fill-opacity="1" fill-rule="evenodd" stroke="#000" stroke-dasharray="none" stroke-dashoffset="0" stroke-linecap="round" stroke-linejoin="round" stroke-miterlimit="4" stroke-opacity="1" stroke-width="6.753" d="m 508.81674,609.79888 c -0.0714,1.0518 -0.11733,2.106 -0.13276,3.1609 0,27.7335 18.9195,50.2155 42.25753,50.2151 23.33647,0 42.25325,-22.4836 42.25325,-50.2151 0,-1.0545 -0.0338,-2.1086 -0.0923,-3.1609" opacity="1"/><path id="path4925" fill="none" fill-opacity="1" fill-rule="evenodd" stroke="#000" stroke-dasharray="none" stroke-dashoffset="0" stroke-linecap="round" stroke-linejoin="round" stroke-miterlimit="4" stroke-opacity="1" stroke-width="6.753" d="m 877.07381,674.92788 8.17289,0 0,10.8237 10.82379,0 0,8.1729 -10.82379,0 0,28.6818 -8.17289,0 0,-28.6818 -10.8238,0 0,-8.1729 10.8238,0 z" opacity="1"/><path id="path5067" fill="none" fill-rule="evenodd" stroke="#000" stroke-dasharray="none" stroke-linecap="butt" stroke-linejoin="miter" stroke-miterlimit="4" stroke-opacity="1" stroke-width="6" d="m 1473.5566,601.40072 c -0.3903,-33.2196 -27.0784,-61.8837 -56.6308,-61.6211 -17.7315,0.1576 -36.4945,10.7285 -51.2647,36.9785 -14.7702,-26.25 -33.5312,-36.8209 -51.2627,-36.9785 -29.5524,-0.2626 -56.2405,28.4015 -56.6308,61.6211 -0.6773,57.6348 92.8572,95.7149 107.8945,133.2148 15.0373,-37.4999 108.5718,-75.58 107.8945,-133.2148 z"/><path id="path5072" fill="none" fill-opacity="1" fill-rule="evenodd" stroke="#000" stroke-dasharray="none" stroke-dashoffset="0" stroke-linecap="round" stroke-linejoin="miter" stroke-miterlimit="4" stroke-opacity="1" stroke-width="5.883" d="m 1712.7722,632.64362 a 98.548439,98.548439 0 0 1 -98.5484,98.54843 98.548439,98.548439 0 0 1 -98.5485,-98.54843 98.548439,98.548439 0 0 1 98.5485,-98.54844 98.548439,98.548439 0 0 1 98.5484,98.54844 z" opacity="1"/><path id="path5074" fill="none" fill-opacity="1" fill-rule="evenodd" stroke="#000" stroke-dasharray="none" stroke-dashoffset="0" stroke-linecap="round" stroke-linejoin="miter" stroke-miterlimit="4" stroke-opacity="1" stroke-width="5.621" d="m 1662.0166,632.64362 a 47.792801,47.792801 0 0 1 -47.7928,47.7928 47.792801,47.792801 0 0 1 -47.7928,-47.7928 47.792801,47.792801 0 0 1 47.7928,-47.79281 47.792801,47.792801 0 0 1 47.7928,47.79281 z" opacity="1"/><path id="path5076" fill="none" fill-opacity="1" fill-rule="evenodd" stroke="#000" stroke-dasharray="none" stroke-dashoffset="0" stroke-linecap="round" stroke-linejoin="miter" stroke-miterlimit="4" stroke-opacity="1" stroke-width="5.007" d="m 1622.5487,632.64362 a 8.3249903,8.3249903 0 0 1 -8.3249,8.32499 8.3249903,8.3249903 0 0 1 -8.325,-8.32499 8.3249903,8.3249903 0 0 1 8.325,-8.32499 8.3249903,8.3249903 0 0 1 8.3249,8.32499 z" opacity="1"/><path id="path5078" fill="none" fill-rule="evenodd" stroke="#000" stroke-dasharray="none" stroke-linecap="butt" stroke-linejoin="miter" stroke-miterlimit="4" stroke-opacity="1" stroke-width="6" d="m 1614.2238,516.22357 0,232.8402"/><path id="path5080" fill="none" fill-rule="evenodd" stroke="#000" stroke-dasharray="none" stroke-linecap="butt" stroke-linejoin="miter" stroke-miterlimit="4" stroke-opacity="1" stroke-width="6" d="m 1730.6439,632.64367 -232.8402,0"/><path id="path5085" fill="none" fill-rule="evenodd" stroke="#000" stroke-linecap="butt" stroke-linejoin="miter" stroke-opacity="1" stroke-width="1.408" d="m 1867.9821,643.90192 c -0.3193,1.56028 -2.2608,0.3394 -2.5933,-0.53068 -0.9012,-2.35784 1.5145,-4.42752 3.6546,-4.65592 3.8281,-0.40857 6.6926,3.20273 6.7186,6.77862 0.038,5.24775 -4.9054,9.00127 -9.9026,8.78118 -6.6606,-0.29335 -11.3272,-6.61193 -10.8438,-13.02657 0.6082,-8.07217 8.3201,-13.66156 16.1505,-12.90644 9.4836,0.91456 16.0009,10.02924 14.9691,19.27452 -1.2161,10.89524 -11.7389,18.34337 -22.3985,17.03169 -12.307,-1.51439 -20.6879,-13.44883 -19.0943,-25.52246 1.8106,-13.71883 15.159,-23.03382 28.6464,-21.15695 15.1308,2.10557 25.3808,16.86947 23.2196,31.77041 -2.3994,16.54287 -18.5801,27.72859 -34.8944,25.2822 -17.955,-2.6924 -30.077,-20.29069 -27.3448,-38.01835 2.9848,-19.36722 22.0014,-32.42583 41.1423,-29.40746 20.7795,3.27676 34.775,23.71226 31.4701,44.2663 -3.5684,22.19179 -25.4232,37.12461 -47.3903,33.53271 -23.6042,-3.85956 -39.4744,-27.13407 -35.5954,-50.51425 4.1506,-25.01651 28.8451,-41.82441 53.6383,-37.65796 26.4289,4.44134 44.1746,30.55605 39.7206,56.7622 -4.2975,25.28504 -27.6367,43.54459 -53.1131,42.50067"/><path id="path5087" fill="none" fill-rule="evenodd" stroke="#000" stroke-linecap="butt" stroke-linejoin="miter" stroke-opacity="1" stroke-width="2.501" d="m 1768.6335,665.36742 c 26.842,12.00001 98.5266,65.36851 194.5265,-2.21054 -21.1579,30.63162 -117.158,81.47381 -194.5265,2.21054 z"/><path id="path5087-6" fill="none" fill-rule="evenodd" stroke="#000" stroke-linecap="butt" stroke-linejoin="miter" stroke-opacity="1" stroke-width="2.501" d="m 1760.6718,658.99166 c 28.7367,-31.57897 105.7898,-118.73699 219.7898,-10.73684 -43.8947,-66.94744 -143.3687,-105.78963 -219.7898,10.73684 z"/><path id="path5104" fill="none" fill-rule="evenodd" stroke="#000" stroke-linecap="butt" stroke-linejoin="miter" stroke-opacity="1" stroke-width="2.501" d="m 1840.7916,589.89364 c 14.3683,-12.31582 14.9998,-18.47371 16.8947,-25.10529"/><path id="path5104-5" fill="none" fill-rule="evenodd" stroke="#000" stroke-linecap="butt" stroke-linejoin="miter" stroke-opacity="1" stroke-width="2.831" d="m 1874.405,584.58087 c 16.9248,-11.59411 18.7908,-18.9841 22.023,-26.64719"/><path id="path5104-5-5" fill="none" fill-rule="evenodd" stroke="#000" stroke-linecap="butt" stroke-linejoin="miter" stroke-opacity="1" stroke-width="2.501" d="m 1908.7378,590.96194 c 15.9366,-10.20502 17.4159,-16.21592 20.2117,-22.52079"/><path id="path5104-5-5-1" fill="none" fill-rule="evenodd" stroke="#000" stroke-linecap="butt" stroke-linejoin="miter" stroke-opacity="1" stroke-width="2.501" d="m 1934.2963,602.91325 c 17.2374,-7.80993 19.5647,-13.54601 23.2371,-19.38387"/><path id="path5104-5-5-1-8" fill="none" fill-rule="evenodd" stroke="#000" stroke-linecap="butt" stroke-linejoin="miter" stroke-opacity="1" stroke-width="2.501" d="m 1959.0072,623.03321 c 17.2374,-7.80992 19.5647,-13.546 23.2371,-19.38387"/><g id="g4260" transform="matrix(0.38601169,0,0,0.38601169,1344.7304,436.58243)"><path id="path4183-2" fill="none" fill-rule="evenodd" stroke="#000" stroke-dasharray="none" stroke-linecap="butt" stroke-linejoin="miter" stroke-miterlimit="4" stroke-opacity="1" stroke-width="10" d="m 1961.4102,444.49503 c -44.1679,9.4068 -79.3323,50.0748 -89.3594,159.11915 -12.5,135.9375 126.5625,151.5625 126.5625,151.5625 l 0,78.125 335.9375,0 0,-278.37105 c -28.6974,-6.7196 -50,-31.5104 -50,-61.0821 0.017,-0.424 0.04,-0.8478 0.066,-1.2715 -0.803,0.0445 -1.6065,0.0775 -2.4102,0.0997 -36.4305,-0.0608 -63.7926,20.0375 -81.8359,-16.9668 -17.3707,18.3797 -46.9693,-14.2912 -71.2891,-14.2832 -23.0674,-0.043 -46.0776,15.6552 -63.1484,-1.0977 -13.3766,16.3831 -33.8109,1.0689 -56.3828,1.0977 -18.5726,0 -35.4767,-6.4233 -48.1406,-16.9317 z"/><path id="path4185-0" fill="none" fill-rule="evenodd" stroke="#000" stroke-dasharray="none" stroke-linecap="butt" stroke-linejoin="miter" stroke-miterlimit="4" stroke-opacity="1" stroke-width="10" d="m 1997.92,491.49484 0,215.4466 c 0,0 -76.235,6.0767 -75.1301,-104.4087 0.7542,-75.4183 20.9922,-109.9331 75.1301,-111.0379 z"/><path id="rect4187-0" fill="none" fill-opacity="1" fill-rule="evenodd" stroke="#000" stroke-dasharray="none" stroke-dashoffset="0" stroke-linecap="round" stroke-linejoin="miter" stroke-miterlimit="4" stroke-opacity="1" stroke-width="10" d="m 2073.2757,509.86384 1.455,0 c 12.365,0 22.3194,9.9545 22.3194,22.3194 l 0,181.9238 c 0,12.3649 -9.9544,22.3193 -22.3194,22.3193 l -1.455,0 c -12.3649,0 -22.3193,-9.9544 -22.3193,-22.3193 l 0,-181.9238 c 0,-12.3649 9.9544,-22.3194 22.3193,-22.3194 z" opacity="1"/><path id="rect4189-5" fill="none" fill-opacity="1" fill-rule="evenodd" stroke="#000" stroke-dasharray="none" stroke-dashoffset="0" stroke-linecap="round" stroke-linejoin="miter" stroke-miterlimit="4" stroke-opacity="1" stroke-width="10" d="m 2165.2757,509.86384 1.455,0 c 12.365,0 22.3194,9.9545 22.3194,22.3194 l 0,181.9238 c 0,12.3649 -9.9544,22.3193 -22.3194,22.3193 l -1.455,0 c -12.3649,0 -22.3193,-9.9544 -22.3193,-22.3193 l 0,-181.9238 c 0,-12.3649 9.9544,-22.3194 22.3193,-22.3194 z" opacity="1"/><path id="rect4191-4" fill="none" fill-opacity="1" fill-rule="evenodd" stroke="#000" stroke-dasharray="none" stroke-dashoffset="0" stroke-linecap="round" stroke-linejoin="miter" stroke-miterlimit="4" stroke-opacity="1" stroke-width="10" d="m 2255.2757,509.86384 1.455,0 c 12.365,0 22.3194,9.9545 22.3194,22.3194 l 0,181.9238 c 0,12.3649 -9.9544,22.3193 -22.3194,22.3193 l -1.455,0 c -12.3649,0 -22.3193,-9.9544 -22.3193,-22.3193 l 0,-181.9238 c 0,-12.3649 9.9544,-22.3194 22.3193,-22.3194 z" opacity="1"/><path id="path4193-1" fill="none" fill-opacity="1" fill-rule="evenodd" stroke="#000" stroke-dasharray="none" stroke-dashoffset="0" stroke-linecap="round" stroke-linejoin="miter" stroke-miterlimit="4" stroke-opacity="1" stroke-width="10" d="m 2209.9407,222.36387 c -27.8894,0.0278 -52.6745,16.29593 -61.6738,40.48047 -6.3073,-1.44959 -12.7371,-2.18663 -19.1856,-2.19922 -26.5505,0.0375 -51.8193,12.33104 -69.4355,33.78125 -7.4974,-5.18104 -16.5629,-7.98367 -25.8769,-8 -24.1625,0 -43.75,18.36332 -43.75,41.01562 0.015,2.72606 0.3198,5.44393 0.9101,8.11329 -30.9652,7.57272 -52.464,32.89654 -52.4727,61.80859 0,35.38075 31.8298,64.06249 71.0938,64.06247 22.5719,-0.0288 43.0062,15.28551 56.3828,-1.0976 17.0708,16.75291 40.0809,1.05461 63.1484,1.0976 24.3197,-0.008 53.9184,32.66296 71.2891,14.28325 18.0432,37.00435 45.4053,16.90598 81.8359,16.96675 0.8037,-0.0222 1.6071,-0.0555 2.4102,-0.1 -0.026,0.42361 -0.048,0.84746 -0.066,1.2715 0,34.73352 29.3813,62.8906 65.625,62.8906 36.2436,0 65.6249,-28.15708 65.625,-62.8906 -0.019,-12.48076 -3.9129,-24.67383 -11.1855,-35.0273 18.7686,-12.53799 29.8998,-32.63045 29.9354,-54.03518 -0.041,-30.74895 -22.7871,-57.49946 -55.1015,-64.80274 -12.8283,-50.28499 -52.3629,-84.76381 -97.2422,-84.80664 -4.5079,0.0465 -9.0081,0.44385 -13.4707,1.18945 -10.8233,-20.75554 -33.6876,-33.97832 -58.7949,-34.00196 z" opacity="1"/></g></g></svg>