<svg xmlns="http://www.w3.org/2000/svg" xmlns:svg="http://www.w3.org/2000/svg" id="svg2" width="250" height="250" version="1.1" viewBox="0 0 250 250"><metadata id="metadata7"/><g id="layer1" transform="translate(0,-802.36223)"><path id="path5085" fill="none" fill-rule="evenodd" stroke="#000" stroke-linecap="butt" stroke-linejoin="miter" stroke-opacity="1" stroke-width="1.408" d="m 113.14755,938.12158 c -0.31928,1.56029 -2.26076,0.3394 -2.5933,-0.53067 -0.90116,-2.35785 1.51455,-4.42752 3.65465,-4.65593 3.82814,-0.40856 6.6926,3.20274 6.71855,6.77862 0.0381,5.24775 -4.90533,9.00128 -9.90259,8.78118 -6.66056,-0.29335 -11.327123,-6.61192 -10.84381,-13.02656 0.6082,-8.07218 8.32015,-13.66157 16.15054,-12.90644 9.48366,0.91456 16.00093,10.02924 14.96907,19.27451 -1.21602,10.89524 -11.73886,18.34337 -22.39849,17.0317 -12.306968,-1.51439 -20.687875,-13.44884 -19.094321,-25.52247 1.810698,-13.71882 15.159061,-23.03381 28.646431,-21.15694 15.1308,2.10556 25.38081,16.86947 23.21958,31.77041 -2.39938,16.54286 -18.58003,27.72858 -34.89439,25.2822 -17.955006,-2.69241 -30.076961,-20.29069 -27.344823,-38.01836 2.984822,-19.36722 22.001443,-32.42582 41.142333,-29.40745 20.77948,3.27676 34.77506,23.71226 31.47008,44.2663 -3.56832,22.19179 -25.42315,37.1246 -47.39028,33.53271 -23.604134,-3.85957 -39.474403,-27.13408 -35.595334,-50.51425 4.150558,-25.01652 28.845046,-41.82442 53.638224,-37.65797 26.42892,4.44134 44.17461,30.55606 39.72059,56.7622 -4.29746,25.28504 -27.63665,43.5446 -53.11308,42.50067"/><path id="path5087" fill="none" fill-rule="evenodd" stroke="#000" stroke-linecap="butt" stroke-linejoin="miter" stroke-opacity="1" stroke-width="2.501" d="M 13.798999,959.58708 C 40.641,971.58709 112.3256,1024.9556 208.3255,957.37654 187.1676,988.00816 91.1675,1038.8503 13.798999,959.58708 Z"/><path id="path5087-6" fill="none" fill-rule="evenodd" stroke="#000" stroke-linecap="butt" stroke-linejoin="miter" stroke-opacity="1" stroke-width="2.501" d="M 5.8372995,953.21132 C 34.574,921.63235 111.6271,834.47433 225.6271,942.47448 181.7324,875.52704 82.2584,836.68485 5.8372995,953.21132 Z"/><path id="path5104" fill="none" fill-rule="evenodd" stroke="#000" stroke-linecap="butt" stroke-linejoin="miter" stroke-opacity="1" stroke-width="2.501" d="m 85.9571,884.1133 c 14.3683,-12.31582 14.9998,-18.47371 16.8947,-25.10529"/><path id="path5104-5" fill="none" fill-rule="evenodd" stroke="#000" stroke-linecap="butt" stroke-linejoin="miter" stroke-opacity="1" stroke-width="2.831" d="m 119.5705,878.80053 c 16.9248,-11.59411 18.7908,-18.9841 22.023,-26.64719"/><path id="path5104-5-5" fill="none" fill-rule="evenodd" stroke="#000" stroke-linecap="butt" stroke-linejoin="miter" stroke-opacity="1" stroke-width="2.501" d="m 153.9033,885.1816 c 15.9366,-10.20502 17.4159,-16.21592 20.2117,-22.52079"/><path id="path5104-5-5-1" fill="none" fill-rule="evenodd" stroke="#000" stroke-linecap="butt" stroke-linejoin="miter" stroke-opacity="1" stroke-width="2.501" d="m 179.4618,897.13291 c 17.2374,-7.80993 19.5647,-13.54601 23.2371,-19.38387"/><path id="path5104-5-5-1-8" fill="none" fill-rule="evenodd" stroke="#000" stroke-linecap="butt" stroke-linejoin="miter" stroke-opacity="1" stroke-width="2.501" d="m 204.1727,917.25287 c 17.2374,-7.80992 19.5647,-13.546 23.2371,-19.38387"/><path id="path5104-5-5-1-8-9" fill="none" fill-rule="evenodd" stroke="#000" stroke-linecap="butt" stroke-linejoin="miter" stroke-opacity="1" stroke-width="2.501" d="m 219.3075,936.49809 c 17.8777,-6.20605 20.7182,-11.70607 24.9075,-17.18488"/></g></svg>