<?xml version="1.0" encoding="UTF-8" standalone="no"?>
<!-- Created with Inkscape (http://www.inkscape.org/) -->

<svg
   xmlns:dc="http://purl.org/dc/elements/1.1/"
   xmlns:cc="http://creativecommons.org/ns#"
   xmlns:rdf="http://www.w3.org/1999/02/22-rdf-syntax-ns#"
   xmlns:svg="http://www.w3.org/2000/svg"
   xmlns="http://www.w3.org/2000/svg"
   xmlns:sodipodi="http://sodipodi.sourceforge.net/DTD/sodipodi-0.dtd"
   xmlns:inkscape="http://www.inkscape.org/namespaces/inkscape"
   width="250"
   height="250"
   viewBox="0 0 250 250"
   id="svg2"
   version="1.1"
   inkscape:version="0.91 r"
   sodipodi:docname="icon_werwolf.svg">
  <defs
     id="defs4" />
  <sodipodi:namedview
     id="base"
     pagecolor="#ffffff"
     bordercolor="#666666"
     borderopacity="1.0"
     inkscape:pageopacity="0.0"
     inkscape:pageshadow="2"
     inkscape:zoom="0.34999999"
     inkscape:cx="131.53048"
     inkscape:cy="215.19749"
     inkscape:document-units="px"
     inkscape:current-layer="layer1"
     showgrid="false"
     inkscape:window-width="1916"
     inkscape:window-height="1143"
     inkscape:window-x="1680"
     inkscape:window-y="36"
     inkscape:window-maximized="0"
     units="px" />
  <metadata
     id="metadata7">
    <rdf:RDF>
      <cc:Work
         rdf:about="">
        <dc:format>image/svg+xml</dc:format>
        <dc:type
           rdf:resource="http://purl.org/dc/dcmitype/StillImage" />
        <dc:title></dc:title>
      </cc:Work>
    </rdf:RDF>
  </metadata>
  <g
     inkscape:label="Layer 1"
     inkscape:groupmode="layer"
     id="layer1"
     transform="translate(0,-802.36223)">
    <g
       id="g4222"
       transform="matrix(0.93714228,0,0,0.93714228,132.42456,320.67575)">
      <path
         sodipodi:nodetypes="ccccccccscsccccccccccccccccccccc"
         inkscape:connector-curvature="0"
         id="path4572-7"
         d="m -60.730577,560.83278 c -25.5129,2.0825 -56.255803,-4.9627 -73.958603,-8.0867 -1.0791,13.0394 -0.617,23.7763 2.0558,34.9318 2.9905,-3.8815 6.5589,-8.3395 10.9851,-13.565 0.3971,0.1212 10.9157,2.4151 17.6833,3.4553 -9.6894,3.6907 -18.7221,6.9542 -25.4906,20.4914 -0.029,0.047 -0.045,0.079 -0.07,0.1263 3.1588,8.9618 7.7537,18.6594 14.1231,30.3363 0.6515,-16.2951 -1.3352,-22.5792 11.2133,-22.3635 17.707503,0.3043 52.010403,18.0883 52.551603,37.7908 0.4748,17.2724 -31.0268,27.0247 -40.7696,23.6133 -4.3806,-1.5339 -14.261003,-10.5164 -14.261003,-10.5164 1.7258,26.4531 13.337703,50.7667 29.796803,63.1112 -0.2595,-5.467 -0.2624,-11.4547 2.6026,-16.4011 0,0 6.5101,10.415 16.6633,11.1961 -5.467,-9.3722 -8.4601,-14.3263 1.5601,-19.7839 10.4815,-5.7089 45.8189,-29.6806 54.6703001,29.6758 0,0 11.1936,-7.0258 15.3588999,-17.6995 7.5499,14.5786 13.7987,38.5252 13.7987,38.5252 0,0 16.4043,-21.0861 11.4579,-49.9833 0,0 18.2244,11.7152 41.1336,36.447 -0.5204,-23.1699 -1.5629,-34.362 -8.3314,-47.8993 21.4494,-1.6183 38.269197,-20.3078 38.269197,-20.3078 0,0 -22.130897,-1.8205 -23.172497,-19.7836 14.578897,-19.2648 25.775197,-19.0037 25.775197,-19.0037 0,0 -14.840197,-11.9795 -37.488997,-12.5003 7.2213,-5.633 11.0253,-9.0228 15.0469,-14.7825 -6.9565,0.5997 -27.2819,8.7982 -43.1622,-2.9169 13.277,-16.6614 33.0594,-17.7067 43.2121,-39.8354 -27.5954,-0.7807 -52.0628,0.7852 -76.7946,8.8556 -25.7733,-2.8636 -69.3689,-18.0422 -69.3689,-18.0422 z"
         style="fill:none;fill-opacity:1;fill-rule:evenodd;stroke:#000000;stroke-width:6.75277567;stroke-linecap:butt;stroke-linejoin:miter;stroke-miterlimit:4;stroke-dasharray:none;stroke-opacity:1" />
      <path
         style="fill:none;fill-opacity:1;fill-rule:evenodd;stroke:#000000;stroke-width:6.75277567;stroke-linecap:butt;stroke-linejoin:miter;stroke-miterlimit:4;stroke-dasharray:none;stroke-opacity:1"
         d="m -46.151777,561.61288 c 6.7685,1.3017 28.3772,17.9671 28.3772,17.9671 -8.9046,1.5183 -28.3772,0.7802 -28.3772,0.7802 z"
         id="path4861"
         inkscape:connector-curvature="0"
         sodipodi:nodetypes="cccc" />
    </g>
  </g>
</svg>
