<svg xmlns="http://www.w3.org/2000/svg" xmlns:svg="http://www.w3.org/2000/svg" xmlns:xlink="http://www.w3.org/1999/xlink" id="svg2" width="48" height="48" version="1.1" viewBox="0 0 48 48"><defs id="defs4"><linearGradient id="linearGradient5082"><stop id="stop5084" offset="0" stop-color="#1e2553" stop-opacity="1"/><stop id="stop5086" offset="1" stop-color="#4f61c2" stop-opacity=".118"/></linearGradient><linearGradient id="linearGradient5076"><stop id="stop5078" offset="0" stop-color="#1e2553" stop-opacity="1"/><stop id="stop5080" offset="1" stop-color="#3f51b5" stop-opacity=".117"/></linearGradient><linearGradient id="linearGradient5002"><stop id="stop5004" offset="0" stop-color="#313e8b" stop-opacity="1"/><stop id="stop5006" offset="1" stop-color="#3f51b5" stop-opacity=".117"/></linearGradient><filter id="filter4979" width="1.036" height="1.036" x="-.018" y="-.018" color-interpolation-filters="sRGB"><feGaussianBlur id="feGaussianBlur4981" stdDeviation=".33"/></filter><linearGradient id="linearGradient5000" x1="-71.611" x2="-57.555" y1="1155.395" y2="1167.858" gradientUnits="userSpaceOnUse" xlink:href="#linearGradient5076"/><linearGradient id="linearGradient4992-9" x1="-69.781" x2="-37.226" y1="1152.031" y2="1186.468" gradientTransform="translate(84.641864,-11.502141)" gradientUnits="userSpaceOnUse" xlink:href="#linearGradient5002"/><linearGradient id="linearGradient5000-1" x1="-73.379" x2="-59.942" y1="1162.378" y2="1162.378" gradientTransform="translate(84.641864,-11.502141)" gradientUnits="userSpaceOnUse" xlink:href="#linearGradient5002"/><filter id="filter4979-9" width="1.036" height="1.036" x="-.018" y="-.018" color-interpolation-filters="sRGB"><feGaussianBlur id="feGaussianBlur4981-8" stdDeviation=".33"/></filter><linearGradient id="linearGradient5074" x1="17.963" x2="49.649" y1="13.372" y2="46.341" gradientUnits="userSpaceOnUse" xlink:href="#linearGradient5082"/></defs><metadata id="metadata7"/><g id="layer1" transform="translate(85.104174,-1138.1354)"><circle id="circle4671" cx="-61.004" cy="1162.635" r="22" fill="#000" fill-opacity=".195" fill-rule="evenodd" stroke="none" stroke-dasharray="none" stroke-dashoffset="0" stroke-linecap="round" stroke-linejoin="round" stroke-miterlimit="4" stroke-opacity="1" stroke-width=".443" filter="url(#filter4979)" opacity="1" transform="matrix(1.0107198,0,0,1.0190731,0.553868,-22.274718)"/><circle id="path4663" cx="-61.104" cy="1162.135" r="22" fill="#3f51b5" fill-opacity="1" fill-rule="evenodd" stroke="none" stroke-dasharray="none" stroke-dashoffset="0" stroke-linecap="round" stroke-linejoin="round" stroke-miterlimit="4" stroke-opacity="1" stroke-width=".443" opacity="1"/><path id="path4984" fill="url(#linearGradient5000)" fill-opacity="1" fill-rule="evenodd" stroke="none" stroke-linecap="butt" stroke-linejoin="miter" stroke-opacity="1" stroke-width="1" d="m -72.566677,1160.8541 9.578125,9.5782 3.046875,-10.1407 -9.28125,-5.9687 -4.15625,3.8437 z" opacity="1"/><path id="circle5062" fill="url(#linearGradient5074)" fill-opacity="1" fill-rule="evenodd" stroke="none" stroke-dasharray="none" stroke-dashoffset="0" stroke-linecap="round" stroke-linejoin="round" stroke-miterlimit="4" stroke-opacity="1" stroke-width=".443" d="M 35.283203 13.710938 L 15.134766 30.970703 L 29.458984 45.294922 A 22.000001 22.000001 0 0 0 45.980469 24.408203 L 35.283203 13.710938 z" opacity="1" transform="translate(-85.104178,1138.1354)"/><path id="path4572-7" fill="#fff" fill-opacity="1" fill-rule="evenodd" stroke="#fff" stroke-dasharray="none" stroke-linecap="butt" stroke-linejoin="miter" stroke-miterlimit="4" stroke-opacity="1" stroke-width=".444" d="m -66.20819,1151.0439 -0.559317,1.6399 c -2.805392,0.2289 -6.185981,-0.5456 -8.132583,-0.8891 -0.118657,1.4338 -0.06765,2.6145 0.226241,3.8412 0.328844,-0.4268 0.720878,-0.9171 1.207583,-1.4918 0.04366,0.013 1.200634,0.2655 1.944802,0.3799 -1.065437,0.4059 -2.059089,0.7647 -2.803356,2.2533 -0.0032,0 -0.0045,0.011 -0.0072,0.014 0.347357,0.9854 0.852364,2.0515 1.552747,3.3356 0.07164,-1.7918 -0.14662,-2.4829 1.233206,-2.4591 1.947122,0.033 5.718823,1.9889 5.778324,4.1553 0.0522,1.8993 -3.411429,2.9716 -4.482757,2.5964 -0.481683,-0.1685 -1.568217,-1.1563 -1.568217,-1.1563 0.189768,2.9088 1.466288,5.5827 3.276141,6.9401 -0.02854,-0.6012 -0.02884,-1.2598 0.286185,-1.8037 0,0 0.716198,1.1454 1.832647,1.2312 -0.601155,-1.0304 -0.930206,-1.5752 0.171614,-2.1754 1.152536,-0.6277 5.038046,-3.2636 6.011333,3.2632 0,0 1.23057,-0.7726 1.688589,-1.9463 0.830178,1.603 1.517457,4.2362 1.517457,4.2362 0,0 1.8037,-2.3185 1.259793,-5.4959 0,0 2.004271,1.2881 4.523367,4.0075 -0.05722,-2.5477 -0.171816,-3.7783 -0.916082,-5.2669 2.358559,-0.1779 4.207691,-2.2334 4.207691,-2.2334 0,0 -2.433102,-0.2001 -2.547625,-2.1754 1.603081,-2.1182 2.83381,-2.0893 2.83381,-2.0893 0,0 -1.631668,-1.3176 -4.122126,-1.3748 0.79404,-0.6194 1.212545,-0.992 1.654748,-1.6252 -0.764932,0.066 -3.000031,0.967 -4.746222,-0.3211 1.459945,-1.8321 3.63514,-1.947 4.751539,-4.3802 -3.034388,-0.086 -5.724884,0.086 -8.444388,0.974 -2.834029,-0.3149 -7.627892,-1.984 -7.627892,-1.984 z m 1.043706,1.7259 c 0.744265,0.1431 3.120479,1.9757 3.120479,1.9757 -0.979155,0.167 -3.120479,0.085 -3.120479,0.085 l 0,-2.0613 z" opacity="1"/><circle id="circle4671-9" cx="-61.004" cy="1162.635" r="22" fill="#000" fill-opacity=".195" fill-rule="evenodd" stroke="none" stroke-dasharray="none" stroke-dashoffset="0" stroke-linecap="round" stroke-linejoin="round" stroke-miterlimit="4" stroke-opacity="1" stroke-width=".443" filter="url(#filter4979-9)" opacity="0" transform="matrix(1.0107198,0,0,1.0190731,85.195732,-33.776842)"/><circle id="path4663-5" cx="23.538" cy="1150.633" r="22" fill="#3f51b5" fill-opacity="1" fill-rule="evenodd" stroke="none" stroke-dasharray="none" stroke-dashoffset="0" stroke-linecap="round" stroke-linejoin="round" stroke-miterlimit="4" stroke-opacity="1" stroke-width=".443" opacity="1"/><path id="path4984-9" fill="url(#linearGradient5000-1)" fill-opacity="1" fill-rule="evenodd" stroke="none" stroke-linecap="butt" stroke-linejoin="miter" stroke-opacity="1" stroke-width="1" d="m 12.075182,1149.352 9.578125,9.5782 3.046876,-10.1407 -9.281251,-5.9687 -4.15625,3.8437 z"/><path id="path4982-3" fill="url(#linearGradient4992-9)" fill-opacity="1" fill-rule="evenodd" stroke="none" stroke-linecap="butt" stroke-linejoin="miter" stroke-opacity="1" stroke-width="1" d="m 14.673405,1157.6045 20.359377,20.3594 23.257618,-14.1515 -23.468753,-23.4688 z"/><path id="path4572-7-0" fill="#fff" fill-opacity="1" fill-rule="evenodd" stroke="#fff" stroke-dasharray="none" stroke-linecap="butt" stroke-linejoin="miter" stroke-miterlimit="4" stroke-opacity="1" stroke-width=".444" d="m 18.433669,1139.5418 -0.559317,1.6399 c -2.805392,0.2289 -6.185981,-0.5456 -8.1325837,-0.8891 -0.118657,1.4338 -0.06765,2.6145 0.226241,3.8412 0.3288437,-0.4268 0.7208787,-0.9171 1.2075837,-1.4918 0.04366,0.013 1.200634,0.2655 1.944802,0.3799 -1.065437,0.4059 -2.059089,0.7647 -2.803357,2.2533 -0.0032,0 -0.0045,0.011 -0.0072,0.014 0.347358,0.9854 0.852365,2.0515 1.552748,3.3356 0.07164,-1.7918 -0.14662,-2.4829 1.233206,-2.4591 1.947122,0.033 5.718823,1.9889 5.778324,4.1553 0.0522,1.8993 -3.411429,2.9716 -4.482757,2.5964 -0.481683,-0.1685 -1.568217,-1.1563 -1.568217,-1.1563 0.189768,2.9088 1.466288,5.5827 3.276141,6.9401 -0.02854,-0.6012 -0.02884,-1.2598 0.286185,-1.8037 0,0 0.716198,1.1454 1.832647,1.2312 -0.601155,-1.0304 -0.930206,-1.5752 0.171614,-2.1754 1.152536,-0.6277 5.038047,-3.2636 6.011334,3.2632 0,0 1.23057,-0.7726 1.688589,-1.9463 0.830178,1.603 1.517457,4.2362 1.517457,4.2362 0,0 1.8037,-2.3185 1.259793,-5.4959 0,0 2.004271,1.2881 4.523367,4.0075 -0.05722,-2.5477 -0.171816,-3.7783 -0.916082,-5.2669 2.358559,-0.1779 4.207691,-2.2334 4.207691,-2.2334 0,0 -2.433102,-0.2001 -2.547625,-2.1754 1.603081,-2.1182 2.83381,-2.0893 2.83381,-2.0893 0,0 -1.631668,-1.3176 -4.122126,-1.3748 0.79404,-0.6194 1.212545,-0.992 1.654748,-1.6252 -0.764932,0.066 -3.000031,0.967 -4.746222,-0.3211 1.459945,-1.8321 3.63514,-1.947 4.751539,-4.3802 -3.034388,-0.086 -5.724884,0.086 -8.444388,0.974 -2.834029,-0.3149 -7.627893,-1.984 -7.627893,-1.984 z m 1.043706,1.7259 c 0.744265,0.1431 3.12048,1.9757 3.12048,1.9757 -0.979156,0.167 -3.12048,0.085 -3.12048,0.085 l 0,-2.0613 z"/></g></svg>