<?xml version="1.0" encoding="UTF-8" standalone="no"?>
<!-- Created with Inkscape (http://www.inkscape.org/) -->

<svg
   xmlns:dc="http://purl.org/dc/elements/1.1/"
   xmlns:cc="http://creativecommons.org/ns#"
   xmlns:rdf="http://www.w3.org/1999/02/22-rdf-syntax-ns#"
   xmlns:svg="http://www.w3.org/2000/svg"
   xmlns="http://www.w3.org/2000/svg"
   xmlns:xlink="http://www.w3.org/1999/xlink"
   xmlns:sodipodi="http://sodipodi.sourceforge.net/DTD/sodipodi-0.dtd"
   xmlns:inkscape="http://www.inkscape.org/namespaces/inkscape"
   width="48"
   height="48"
   viewBox="0 0 47.999998 48.000002"
   id="svg2"
   version="1.1"
   inkscape:version="0.91 r"
   sodipodi:docname="ic_launcher.svg"
   inkscape:export-filename="/home/maddoc/android/Werewolf/app/playstore/ic_launcher.png"
   inkscape:export-xdpi="960"
   inkscape:export-ydpi="960">
  <defs
     id="defs4">
    <linearGradient
       id="linearGradient5082"
       inkscape:collect="always">
      <stop
         id="stop5084"
         offset="0"
         style="stop-color:#1e2553;stop-opacity:1" />
      <stop
         id="stop5086"
         offset="1"
         style="stop-color:#4f61c2;stop-opacity:0.11764706" />
    </linearGradient>
    <linearGradient
       inkscape:collect="always"
       id="linearGradient5076">
      <stop
         style="stop-color:#1e2553;stop-opacity:1"
         offset="0"
         id="stop5078" />
      <stop
         style="stop-color:#3f51b5;stop-opacity:0.11688311"
         offset="1"
         id="stop5080" />
    </linearGradient>
    <linearGradient
       id="linearGradient5002"
       inkscape:collect="always">
      <stop
         id="stop5004"
         offset="0"
         style="stop-color:#313e8b;stop-opacity:1" />
      <stop
         id="stop5006"
         offset="1"
         style="stop-color:#3f51b5;stop-opacity:0.11688311" />
    </linearGradient>
    <filter
       inkscape:collect="always"
       style="color-interpolation-filters:sRGB"
       id="filter4979"
       x="-0.018000152"
       width="1.0360003"
       y="-0.018000152"
       height="1.0360003">
      <feGaussianBlur
         inkscape:collect="always"
         stdDeviation="0.33000282"
         id="feGaussianBlur4981" />
    </filter>
    <linearGradient
       inkscape:collect="always"
       xlink:href="#linearGradient5076"
       id="linearGradient5000"
       x1="-71.611404"
       y1="1155.3949"
       x2="-57.555191"
       y2="1167.8577"
       gradientUnits="userSpaceOnUse" />
    <linearGradient
       gradientTransform="translate(84.641864,-11.502141)"
       inkscape:collect="always"
       xlink:href="#linearGradient5002"
       id="linearGradient4992-9"
       x1="-69.780952"
       y1="1152.0309"
       x2="-37.226463"
       y2="1186.4684"
       gradientUnits="userSpaceOnUse" />
    <linearGradient
       gradientTransform="translate(84.641864,-11.502141)"
       inkscape:collect="always"
       xlink:href="#linearGradient5002"
       id="linearGradient5000-1"
       x1="-73.379173"
       y1="1162.3776"
       x2="-59.941677"
       y2="1162.3776"
       gradientUnits="userSpaceOnUse" />
    <filter
       inkscape:collect="always"
       style="color-interpolation-filters:sRGB"
       id="filter4979-9"
       x="-0.018000152"
       width="1.0360003"
       y="-0.018000152"
       height="1.0360003">
      <feGaussianBlur
         inkscape:collect="always"
         stdDeviation="0.33000282"
         id="feGaussianBlur4981-8" />
    </filter>
    <linearGradient
       inkscape:collect="always"
       xlink:href="#linearGradient5082"
       id="linearGradient5074"
       x1="17.963194"
       y1="13.372054"
       x2="49.648586"
       y2="46.340912"
       gradientUnits="userSpaceOnUse" />
  </defs>
  <sodipodi:namedview
     id="base"
     pagecolor="#ffffff"
     bordercolor="#666666"
     borderopacity="1.0"
     inkscape:pageopacity="0.0"
     inkscape:pageshadow="2"
     inkscape:zoom="7.9999997"
     inkscape:cx="4.5646985"
     inkscape:cy="17.728077"
     inkscape:document-units="px"
     inkscape:current-layer="layer1"
     showgrid="false"
     units="px"
     fit-margin-top="10"
     fit-margin-left="10"
     fit-margin-right="10"
     fit-margin-bottom="10"
     inkscape:window-width="1916"
     inkscape:window-height="1143"
     inkscape:window-x="1680"
     inkscape:window-y="36"
     inkscape:window-maximized="0"
     showguides="false" />
  <metadata
     id="metadata7">
    <rdf:RDF>
      <cc:Work
         rdf:about="">
        <dc:format>image/svg+xml</dc:format>
        <dc:type
           rdf:resource="http://purl.org/dc/dcmitype/StillImage" />
        <dc:title></dc:title>
      </cc:Work>
    </rdf:RDF>
  </metadata>
  <g
     inkscape:label="Layer 1"
     inkscape:groupmode="layer"
     id="layer1"
     transform="translate(85.104174,-1138.1354)">
    <circle
       r="22.000002"
       cy="1162.6354"
       cx="-61.004177"
       id="circle4671"
       style="opacity:1;fill:#000000;fill-opacity:0.19480519;fill-rule:evenodd;stroke:none;stroke-width:0.44315594;stroke-linecap:round;stroke-linejoin:round;stroke-miterlimit:4;stroke-dasharray:none;stroke-dashoffset:0;stroke-opacity:1;filter:url(#filter4979)"
       transform="matrix(1.0107198,0,0,1.0190731,0.553868,-22.274718)" />
    <circle
       style="opacity:1;fill:#3f51b5;fill-opacity:1;fill-rule:evenodd;stroke:none;stroke-width:0.44315594;stroke-linecap:round;stroke-linejoin:round;stroke-miterlimit:4;stroke-dasharray:none;stroke-dashoffset:0;stroke-opacity:1"
       id="path4663"
       cx="-61.104176"
       cy="1162.1354"
       r="22.000002" />
    <path
       style="fill:url(#linearGradient5000);fill-opacity:1;fill-rule:evenodd;stroke:none;stroke-width:1px;stroke-linecap:butt;stroke-linejoin:miter;stroke-opacity:1;opacity:1"
       d="m -72.566677,1160.8541 9.578125,9.5782 3.046875,-10.1407 -9.28125,-5.9687 -4.15625,3.8437 z"
       id="path4984"
       inkscape:connector-curvature="0" />
    <path
       style="opacity:1;fill:url(#linearGradient5074);fill-opacity:1;fill-rule:evenodd;stroke:none;stroke-width:0.44315594;stroke-linecap:round;stroke-linejoin:round;stroke-miterlimit:4;stroke-dasharray:none;stroke-dashoffset:0;stroke-opacity:1"
       d="M 35.283203 13.710938 L 15.134766 30.970703 L 29.458984 45.294922 A 22.000001 22.000001 0 0 0 45.980469 24.408203 L 35.283203 13.710938 z "
       transform="translate(-85.104178,1138.1354)"
       id="circle5062" />
    <path
       style="fill:#ffffff;fill-opacity:1;fill-rule:evenodd;stroke:#ffffff;stroke-width:0.44355056;stroke-linecap:butt;stroke-linejoin:miter;stroke-miterlimit:4;stroke-dasharray:none;stroke-opacity:1;opacity:1"
       d="m -66.20819,1151.0439 -0.559317,1.6399 c -2.805392,0.2289 -6.185981,-0.5456 -8.132583,-0.8891 -0.118657,1.4338 -0.06765,2.6145 0.226241,3.8412 0.328844,-0.4268 0.720878,-0.9171 1.207583,-1.4918 0.04366,0.013 1.200634,0.2655 1.944802,0.3799 -1.065437,0.4059 -2.059089,0.7647 -2.803356,2.2533 -0.0032,0 -0.0045,0.011 -0.0072,0.014 0.347357,0.9854 0.852364,2.0515 1.552747,3.3356 0.07164,-1.7918 -0.14662,-2.4829 1.233206,-2.4591 1.947122,0.033 5.718823,1.9889 5.778324,4.1553 0.0522,1.8993 -3.411429,2.9716 -4.482757,2.5964 -0.481683,-0.1685 -1.568217,-1.1563 -1.568217,-1.1563 0.189768,2.9088 1.466288,5.5827 3.276141,6.9401 -0.02854,-0.6012 -0.02884,-1.2598 0.286185,-1.8037 0,0 0.716198,1.1454 1.832647,1.2312 -0.601155,-1.0304 -0.930206,-1.5752 0.171614,-2.1754 1.152536,-0.6277 5.038046,-3.2636 6.011333,3.2632 0,0 1.23057,-0.7726 1.688589,-1.9463 0.830178,1.603 1.517457,4.2362 1.517457,4.2362 0,0 1.8037,-2.3185 1.259793,-5.4959 0,0 2.004271,1.2881 4.523367,4.0075 -0.05722,-2.5477 -0.171816,-3.7783 -0.916082,-5.2669 2.358559,-0.1779 4.207691,-2.2334 4.207691,-2.2334 0,0 -2.433102,-0.2001 -2.547625,-2.1754 1.603081,-2.1182 2.83381,-2.0893 2.83381,-2.0893 0,0 -1.631668,-1.3176 -4.122126,-1.3748 0.79404,-0.6194 1.212545,-0.992 1.654748,-1.6252 -0.764932,0.066 -3.000031,0.967 -4.746222,-0.3211 1.459945,-1.8321 3.63514,-1.947 4.751539,-4.3802 -3.034388,-0.086 -5.724884,0.086 -8.444388,0.974 -2.834029,-0.3149 -7.627892,-1.984 -7.627892,-1.984 z m 1.043706,1.7259 c 0.744265,0.1431 3.120479,1.9757 3.120479,1.9757 -0.979155,0.167 -3.120479,0.085 -3.120479,0.085 l 0,-2.0613 z"
       id="path4572-7"
       inkscape:connector-curvature="0" />
    <circle
       r="22.000002"
       cy="1162.6354"
       cx="-61.004177"
       id="circle4671-9"
       style="opacity:0;fill:#000000;fill-opacity:0.19480519;fill-rule:evenodd;stroke:none;stroke-width:0.44315594;stroke-linecap:round;stroke-linejoin:round;stroke-miterlimit:4;stroke-dasharray:none;stroke-dashoffset:0;stroke-opacity:1;filter:url(#filter4979-9)"
       transform="matrix(1.0107198,0,0,1.0190731,85.195732,-33.776842)" />
    <circle
       style="opacity:1;fill:#3f51b5;fill-opacity:1;fill-rule:evenodd;stroke:none;stroke-width:0.44315594;stroke-linecap:round;stroke-linejoin:round;stroke-miterlimit:4;stroke-dasharray:none;stroke-dashoffset:0;stroke-opacity:1"
       id="path4663-5"
       cx="23.537683"
       cy="1150.6333"
       r="22.000004" />
    <path
       style="fill:url(#linearGradient5000-1);fill-opacity:1;fill-rule:evenodd;stroke:none;stroke-width:1px;stroke-linecap:butt;stroke-linejoin:miter;stroke-opacity:1"
       d="m 12.075182,1149.352 9.578125,9.5782 3.046876,-10.1407 -9.281251,-5.9687 -4.15625,3.8437 z"
       id="path4984-9"
       inkscape:connector-curvature="0" />
    <path
       style="fill:url(#linearGradient4992-9);fill-opacity:1;fill-rule:evenodd;stroke:none;stroke-width:1px;stroke-linecap:butt;stroke-linejoin:miter;stroke-opacity:1"
       d="m 14.673405,1157.6045 20.359377,20.3594 23.257618,-14.1515 -23.468753,-23.4688 z"
       id="path4982-3"
       inkscape:connector-curvature="0"
       sodipodi:nodetypes="ccccc" />
    <path
       style="fill:#ffffff;fill-opacity:1;fill-rule:evenodd;stroke:#ffffff;stroke-width:0.44355056;stroke-linecap:butt;stroke-linejoin:miter;stroke-miterlimit:4;stroke-dasharray:none;stroke-opacity:1"
       d="m 18.433669,1139.5418 -0.559317,1.6399 c -2.805392,0.2289 -6.185981,-0.5456 -8.1325837,-0.8891 -0.118657,1.4338 -0.06765,2.6145 0.226241,3.8412 0.3288437,-0.4268 0.7208787,-0.9171 1.2075837,-1.4918 0.04366,0.013 1.200634,0.2655 1.944802,0.3799 -1.065437,0.4059 -2.059089,0.7647 -2.803357,2.2533 -0.0032,0 -0.0045,0.011 -0.0072,0.014 0.347358,0.9854 0.852365,2.0515 1.552748,3.3356 0.07164,-1.7918 -0.14662,-2.4829 1.233206,-2.4591 1.947122,0.033 5.718823,1.9889 5.778324,4.1553 0.0522,1.8993 -3.411429,2.9716 -4.482757,2.5964 -0.481683,-0.1685 -1.568217,-1.1563 -1.568217,-1.1563 0.189768,2.9088 1.466288,5.5827 3.276141,6.9401 -0.02854,-0.6012 -0.02884,-1.2598 0.286185,-1.8037 0,0 0.716198,1.1454 1.832647,1.2312 -0.601155,-1.0304 -0.930206,-1.5752 0.171614,-2.1754 1.152536,-0.6277 5.038047,-3.2636 6.011334,3.2632 0,0 1.23057,-0.7726 1.688589,-1.9463 0.830178,1.603 1.517457,4.2362 1.517457,4.2362 0,0 1.8037,-2.3185 1.259793,-5.4959 0,0 2.004271,1.2881 4.523367,4.0075 -0.05722,-2.5477 -0.171816,-3.7783 -0.916082,-5.2669 2.358559,-0.1779 4.207691,-2.2334 4.207691,-2.2334 0,0 -2.433102,-0.2001 -2.547625,-2.1754 1.603081,-2.1182 2.83381,-2.0893 2.83381,-2.0893 0,0 -1.631668,-1.3176 -4.122126,-1.3748 0.79404,-0.6194 1.212545,-0.992 1.654748,-1.6252 -0.764932,0.066 -3.000031,0.967 -4.746222,-0.3211 1.459945,-1.8321 3.63514,-1.947 4.751539,-4.3802 -3.034388,-0.086 -5.724884,0.086 -8.444388,0.974 -2.834029,-0.3149 -7.627893,-1.984 -7.627893,-1.984 z m 1.043706,1.7259 c 0.744265,0.1431 3.12048,1.9757 3.12048,1.9757 -0.979156,0.167 -3.12048,0.085 -3.12048,0.085 l 0,-2.0613 z"
       id="path4572-7-0"
       inkscape:connector-curvature="0" />
  </g>
</svg>
