<svg xmlns="http://www.w3.org/2000/svg" xmlns:svg="http://www.w3.org/2000/svg" xmlns:xlink="http://www.w3.org/1999/xlink" id="svg2" width="23.717" height="33.203" fill="#fff" version="1.1" viewBox="0 0 23.717 33.203"><metadata id="metadata14"/><defs id="defs4"><path id="a" d="M 0,0 24,0 24,24 0,24 0,0 Z"/></defs><clipPath id="b"><use id="use8" width="100%" height="100%" x="0" y="0" overflow="visible" xlink:href="#a"/></clipPath><path id="path10" d="M 9,11.24 9,7.5 C 9,6.12 10.12,5 11.5,5 12.88,5 14,6.12 14,7.5 l 0,3.74 C 15.21,10.43 16,9.06 16,7.5 16,5.01 13.99,3 11.5,3 9.01,3 7,5.01 7,7.5 c 0,1.56 0.79,2.93 2,3.74 z m 9.84,4.63 -4.54,-2.26 C 14.13,13.54 13.95,13.5 13.76,13.5 l -0.76,0 0,-6 C 13,6.67 12.33,6 11.5,6 10.67,6 10,6.67 10,7.5 L 10,18.24 6.57,17.52 C 6.49,17.51 6.42,17.49 6.33,17.49 c -0.31,0 -0.59,0.13 -0.79,0.33 l -0.79,0.8 4.94,4.94 C 9.96,23.83 10.34,24 10.75,24 l 6.79,0 c 0.75,0 1.33,-0.55 1.44,-1.28 l 0.75,-5.27 c 0.01,-0.07 0.02,-0.14 0.02,-0.2 0,-0.62 -0.38,-1.16 -0.91,-1.38 z" clip-path="url(#b)" transform="matrix(1.5811138,0,0,1.5811138,-7.5102905,-4.7433414)"/></svg>